<?xml version="1.0" encoding="UTF-8" standalone="no"?>
<!-- Created with Inkscape (http://www.inkscape.org/) -->

<svg
   xmlns:dc="http://purl.org/dc/elements/1.1/"
   xmlns:cc="http://creativecommons.org/ns#"
   xmlns:rdf="http://www.w3.org/1999/02/22-rdf-syntax-ns#"
   xmlns:svg="http://www.w3.org/2000/svg"
   xmlns="http://www.w3.org/2000/svg"
   xmlns:sodipodi="http://sodipodi.sourceforge.net/DTD/sodipodi-0.dtd"
   xmlns:inkscape="http://www.inkscape.org/namespaces/inkscape"
   width="100.0mm"
   height="100.0mm"
   viewBox="0 0 100.0 100.0"
   version="1.1"
   id="svg8"
   inkscape:version="0.92.4 (5da689c313, 2019-01-14)"
   sodipodi:docname="wutang.svg">
  <defs
     id="defs2" />
  <sodipodi:namedview
     id="base"
     pagecolor="#ffffff"
     bordercolor="#666666"
     borderopacity="1.0"
     inkscape:pageopacity="0.0"
     inkscape:pageshadow="2"
     inkscape:zoom="4"
     inkscape:cx="200.25519"
     inkscape:cy="191.82443"
     inkscape:document-units="mm"
     inkscape:current-layer="g828"
     showgrid="true"
     inkscape:window-width="1920"
     inkscape:window-height="1017"
     inkscape:window-x="1672"
     inkscape:window-y="-8"
     inkscape:window-maximized="1"
     borderlayer="true"
     inkscape:snap-global="false">
    <inkscape:grid
       id="grid816"
       units="mm"
       type="xygrid"
       empspacing="1"
       spacingy="2.54"
       spacingx="2.54" />
    <inkscape:grid
       spacingx="2.54"
       spacingy="2.54"
       empspacing="1"
       type="xygrid"
       units="mm"
       id="grid916" />
  </sodipodi:namedview>
  <metadata
     id="metadata5">
    <rdf:RDF>
      <cc:Work
         rdf:about="">
        <dc:format>image/svg+xml</dc:format>
        <dc:type
           rdf:resource="http://purl.org/dc/dcmitype/StillImage" />
        <dc:title />
      </cc:Work>
    </rdf:RDF>
  </metadata>
  <g
     id="g822"
     sodipodi:insensitive="true"
     inkscape:groupmode="layer"
     inkscape:label="[fixed] BG">
    <rect
       id="rect820"
       style="stroke:none;fill-opacity:1;fill:#FFFFFF"
       height="100.0"
       width="100.0"
       y="0"
       x="0" />
  </g>
  <g
     id="g824"
     inkscape:groupmode="layer"
     inkscape:label="Edge.Cuts"
     style="display:inline">
    <path
       style="display:inline;fill:none;fill-opacity:1;stroke:#000000;stroke-width:0.12813027;stroke-miterlimit:4;stroke-dasharray:none;stroke-opacity:1"
       d="M58.31839 78.369262L58.447944 78.022623L58.727101 77.262775L59.014174 76.438546L59.309387 75.549288L59.612958 74.594348L59.841065 73.831095L59.878525 73.703883L59.930955 73.519433L59.980965 73.341338L60.095631 72.940631L60.142021 72.768902L60.171381 72.66077L60.209521 72.520842L60.458648 71.547699L60.622638 70.870311L60.666458 70.682675L60.724878 70.421902L60.769588 70.218364L60.807828 70.040269L60.845858 69.862179L60.973936 69.213414L61.012016 69.020526L61.13816 68.291153L61.16879 68.106697L61.24148 67.615553L61.32189 66.999981L61.3949 66.308611L61.45674 65.428959L61.46674 65.073591L61.47024 64.547933L61.46714 64.029485L61.45734 63.69575L61.42287 63.248138L61.38969 62.914588L61.35001 62.628946L61.29605 62.325062L61.22131 61.972286L61.13472 61.638336L61.0361 61.322739L60.925249 61.025022L60.801978 60.744713L60.666095 60.481339L60.517407 60.234426L60.355725 60.003501L60.239333 59.856461L60.118131 59.717706L59.99199 59.587161L59.860781 59.464756L59.724372 59.350419L59.582636 59.244075L59.435442 59.145655L59.28266 59.055085L59.124159 58.972295L58.959812 58.897215L58.789488 58.829765L58.613056 58.769875L58.430388 58.717465L58.241354 58.672475L57.843667 58.604465L57.590857 58.583885L57.248131 58.569775L56.910706 58.564775L56.673799 58.571675L56.347313 58.611815L56.054616 58.673915L55.776877 58.762985L55.495267 58.884002L55.295878 58.988865L55.108348 59.10702L54.932587 59.238555L54.768503 59.383559L54.616003 59.542119L54.474996 59.714323L54.345391 59.900258L54.227097 60.100012L54.156977 60.239203L54.089887 60.393013L53.969015 60.730878L53.872985 61.086401L53.810315 61.432377L53.779725 61.764206L53.762255 62.154724L53.759455 62.541907L53.773065 62.863729L53.818595 63.346624L53.862345 63.673507L53.894655 63.870678L53.972935 64.304625L54.072145 64.764079L54.189705 65.237965L54.323045 65.715205L54.370635 65.880573L54.566088 66.497538L54.858398 67.329719L55.192363 68.196306L55.561086 69.080119L55.95767 69.963975L56.488708 71.073679L56.957749 72.009436L57.192607 72.457269L57.400973 72.855021L57.431393 72.921621L57.432255 72.937131L57.424955 72.946031L57.253534 72.963101L56.864606 72.980011L55.884601 72.998151L54.902866 72.981721L53.806967 72.936761L52.727443 72.869981L51.794838 72.788091L51.489536 72.756461L50.910739 72.692611L50.351019 72.622141L49.899426 72.559401L49.041081 72.429044L48.252071 72.291631L48.016736 72.247541L47.61603 72.169531L47.374332 72.120181L47.132636 72.069681L46.921157 72.024431L46.666738 71.967061L46.388464 71.903191L45.396236 71.656212L45.090936 71.573382L44.432733 71.38695L43.735787 71.172777L43.0438 70.944777L42.40047 70.71686L41.624497 70.419771L40.9123 70.126096L40.219191 69.819595L39.557708 69.506005L38.940392 69.191065L38.50152 68.955467L37.945835 68.639831L37.396789 68.308794L36.857896 67.964797L36.33267 67.610276L35.824625 67.247671L35.337273 66.879421L34.87413 66.507965L34.438709 66.135742L34.247051 65.969536L33.927103 65.678047L33.461394 65.221768L32.978099 64.728895L32.605393 64.327622L32.171019 63.821572L31.78574 63.346338L31.426515 62.872551L31.070303 62.370842L30.819151 61.995551L30.558148 61.586335L30.312902 61.184236L30.109021 60.830293L29.946501 60.537715L29.631569 59.919468L29.332472 59.303793L29.256072 59.132059L29.005792 58.549362L28.745531 57.876608L28.495506 57.168503L28.275932 56.479756L28.064684 55.725077L27.912219 55.118622L27.867209 54.921446L27.755459 54.401178L27.643504 53.833815L27.618334 53.700242L27.588024 53.522152L27.531294 53.165966L27.479354 52.822505L27.453784 52.644409L27.376984 52.027449L27.306564 51.351794L27.251064 50.655382L27.210584 49.94244L27.185234 49.217192L27.175124 48.48386L27.180324 47.746671L27.200984 47.009847L27.237184 46.277613L27.262904 45.851463L27.283494 45.576153L27.315544 45.280855L27.440769 44.414003L27.466129 44.24863L27.56645 43.638028L27.689287 42.938381L27.721277 42.763469L27.784197 42.423186L27.821257 42.226015L27.870607 41.977955L27.936437 41.647211L28.064013 41.03661L28.268678 40.120706L28.337358 39.834491L28.420128 39.491023L28.463318 39.312933L28.559708 38.937668L28.660906 38.549678L28.738686 38.269819L28.998657 37.360278L29.259926 36.527062L29.49703 35.840134L29.739235 35.183126L29.976075 34.589048L30.216271 34.036944L30.468548 33.505854L30.677288 33.091473L30.87758 32.728601L31.169595 32.245003L31.653503 31.468446L31.855656 31.128162L31.881306 31.083622L31.906626 31.069802L32.176351 31.138272L32.7771 31.305021L33.279574 31.445251L33.623037 31.541001L34.017384 31.650547L34.602544 31.813919L35.747425 32.132426L35.950958 32.189446L36.319864 32.291735L36.752373 32.412047L37.254848 32.552031L38.533295 32.907442L38.825876 32.988982L39.169339 33.084712L39.76722 33.251306L40.269694 33.391282L40.568635 33.474012L40.791252 33.536012L40.950263 33.580832L41.459097 33.722367L41.967933 33.862942L42.165106 33.918742L42.394082 33.983152L42.629417 34.047682L43.888784 34.397821L44.384899 34.535898L44.728362 34.631638L45.078187 34.729118L45.618825 34.879693L46.121299 35.019668L46.324833 35.076998L46.509284 35.127698L46.642853 35.164978L46.890913 35.234668L47.743211 35.471121L48.245687 35.611296L48.58915 35.706736L49.136146 35.858818L49.636598 36.000825L49.691278 36.025295L49.694078 36.033995L49.689678 36.043395L49.664768 36.075035L49.500666 36.259907L49.262633 36.546111L49.000977 36.889933L48.7523 37.247358L48.518102 37.615672L48.299882 37.992163L48.099138 38.374116L47.91737 38.758817L47.756077 39.143554L47.616757 39.525613L47.501094 39.9015L47.401544 40.289339L47.323314 40.666696L47.271624 41.011136L47.239544 41.359907L47.223884 41.702761L47.224666 42.040082L47.241926 42.372253L47.275686 42.699654L47.325976 43.022671L47.392836 43.341684L47.476286 43.657077L47.60219 44.043684L47.7521 44.424244L47.926365 44.799363L48.125334 45.169652L48.34936 45.535719L48.598789 45.898174L48.873973 46.257625L49.175261 46.614682L49.478227 46.938116L49.837337 47.291877L50.202505 47.628244L50.523649 47.899494L50.715109 48.052405L51.022139 48.290782L51.108379 48.350322L51.149859 48.370162L51.182909 48.349932L51.228729 48.292722L51.347805 48.088378L51.485256 47.799133L51.619255 47.466985L51.72862 47.136241L51.84033 46.71537L51.91354 46.317328L51.93546 46.128567L51.94748 45.947551L51.94948 45.774961L51.94138 45.611474L51.92256 45.441085L51.89513 45.282127L51.85878 45.133734L51.81319 44.995038L51.75803 44.865169L51.69297 44.74326L51.6177 44.628444L51.53188 44.51985L51.377755 44.367342L51.196039 44.233475L50.991982 44.121595L50.770837 44.035055L50.489379 43.964445L50.220652 43.921775L50.147532 43.912175L50.110182 43.899835L50.071812 43.745895L50.031862 43.53629L50.016182 43.405543L50.016637 43.363353L50.026137 43.346433L50.048367 43.327813L50.150897 43.272033L50.363794 43.169103L50.993478 42.865163L52.59631 42.089378L53.143304 41.825306L53.598979 41.604196L53.919247 41.45005L54.314044 41.259241L54.708066 41.068427L54.977028 40.93952L55.623874 40.626318L56.137614 40.378152L56.269726 40.314282L56.340346 40.348902L56.503947 40.443902L56.720667 40.589935L56.958665 40.764545L57.186101 40.94528L57.351258 41.092439L57.546835 41.280246L57.736547 41.472871L57.884104 41.634483L58.037926 41.823276L58.186048 42.021364L58.323344 42.221596L58.444688 42.416819L58.588852 42.684837L58.683242 42.87977L58.719702 42.96668L58.796282 43.154564L58.869692 43.372713L58.935022 43.605109L58.987332 43.835733L59.028612 44.065041L59.053592 44.264198L59.065782 44.471605L59.068782 44.725658L59.064482 44.984885L59.049802 45.206434L59.021232 45.427702L58.975172 45.686084L58.898802 46.015381L58.794576 46.367954L58.669676 46.721661L58.53128 47.054362L58.49507 47.148162L58.494827 47.168332L58.505697 47.174432L58.649325 47.086862L58.8869 46.92208L59.10068 46.758823L59.317929 46.580562L59.53195 46.392979L59.736043 46.20176L60.04656 45.883889L60.326411 45.562847L60.575797 45.238307L60.794919 44.909943L60.983981 44.577431L61.143181 44.240442L61.272723 43.898653L61.372807 43.551737L61.429907 43.285074L61.459747 43.106978L61.472057 42.917049L61.475757 42.609536L61.471057 42.298698L61.458147 42.098794L61.379041 41.68293L61.278945 41.313599L61.147332 40.958468L60.97383 40.585108L60.800081 40.265304L60.600814 39.9459L60.375772 39.626581L60.124693 39.307034L59.847322 38.986945L59.5434 38.666003L59.212666 38.343892L58.854863 38.0203L58.372969 37.620671L57.907155 37.261538L57.695338 37.107599L57.019873 36.640173L56.991243 36.608653L57.018343 36.586223L57.083473 36.552133L57.612701 36.295833L58.053103 36.081913L58.512923 35.857833L59.33189 35.458514L60.012457 35.12801L60.801149 34.743275L61.83154 34.240269L62.493027 33.919076L63.024923 33.660056L63.459489 33.448688L63.955592 33.206994L64.451882 32.965295L64.961686 32.717238L65.469943 32.469182L65.827535 32.295915L67.587739 31.438731L69.114244 30.694632L69.782088 30.370127L70.327421 30.104628L70.774654 29.886843L71.270101 29.645147L71.765891 29.403451L72.149851 29.217401L72.968672 28.818179L73.922735 28.354032L75.216715 27.727616L75.370435 27.663136L75.391005 27.662036L75.399605 27.669836L75.602509 27.951803L75.970955 28.493908L76.551588 29.389604L77.132554 30.336207L77.701194 31.312547L78.24485 32.297452L78.586785 32.942864L78.931982 33.625033L79.438188 34.654763L79.887471 35.628326L80.183199 36.303386L80.454989 36.94693L80.594564 37.290395L80.961823 38.228754L81.281967 39.096761L81.406392 39.452947L81.593387 40.006302L81.72774 40.413373L81.8082 40.66779L81.910058 40.998533L82.158452 41.847229L82.246852 42.169262L82.510933 43.186524L82.558723 43.390057L82.713195 44.070624L82.750705 44.248714L82.934554 45.177341L82.979564 45.419035L83.049394 45.826105L83.101514 46.150486L83.132564 46.354023L83.162524 46.563917L83.208474 46.907379L83.247034 47.212681L83.323484 47.877527L83.386254 48.599257L83.446394 49.540602L83.463294 50.075903L83.468994 50.802485L83.463394 51.527809L83.446524 52.059333L83.378834 53.06023L83.309814 53.77029L83.133225 55.042379L83.095195 55.258635L82.935985 56.085493L82.897085 56.269946L82.866035 56.416236L82.630517 57.363192L82.566227 57.599275L82.43934 58.03464L82.271649 58.566063L82.098717 59.074299L81.853528 59.736383L81.646592 60.246015L81.426785 60.758121L81.389965 60.842451L81.327775 60.978319L81.154753 61.345574L80.936436 61.789439L80.754218 62.140633L80.664888 62.306002L80.371087 62.836433L80.073654 63.342754L79.624453 64.055124L79.340905 64.47819L79.046069 64.898484L78.739281 65.316931L78.419879 65.734455L78.183441 66.03444L77.895881 66.381721L77.613406 66.718765L77.383101 66.980084L77.123374 67.27267L76.820844 67.598298L76.393617 68.037975L75.946143 68.485729L75.582873 68.835588L75.277572 69.118929L74.51325 69.797379L74.207949 70.053368L73.940688 70.275986L73.622663 70.531058L73.08958 70.948214L72.777922 71.185486L72.323172 71.520137L72.096362 71.683613L71.82286 71.876495L71.633039 72.007782L70.755302 72.596252L70.030212 73.057642L68.916237 73.724507L68.38048 74.031954L67.937627 74.276219L67.810415 74.346359L67.645045 74.435649L67.390627 74.572696L66.355485 75.099316L65.228078 75.650774L65.011827 75.751864L64.367929 76.047151L63.607456 76.381297L62.816126 76.717282L62.07966 77.018091L60.818855 77.508035L59.745381 77.901694L59.471883 77.999304L58.499417 78.335306L58.323024 78.391516L58.316724 78.385016L58.318224 78.369286L58.318373 78.369361"
       id="path999"
       inkscape:connector-curvature="0" />
  </g>
  <g
     id="g826"
     inkscape:groupmode="layer"
     inkscape:label="B.Cu"
     style="display:none">
    <path
       style="display:inline;fill:#000000;fill-opacity:1;stroke:#000000;stroke-width:0.13507415;stroke-miterlimit:4;stroke-dasharray:none;stroke-opacity:1"
       d="m 73.492895,28.78391 c -4.253372,2.411772 -12.277034,5.799112 -15.99283,7.850644 2.13874,1.566905 4.022513,3.242976 4.136659,4.854245 0.196757,2.777411 -0.172022,3.000207 -1.77785,5.031553 -1.99192,1.474817 -1.634584,0.932133 -1.24877,-0.264835 0.416216,-1.291289 0.52484,-3.723157 -2.300572,-5.653109 -0.852791,0.177462 -1.144153,0.522629 -2.438982,1.057997 -1.04617,0.432555 -1.64158,0.896308 -2.407443,1.372376 -0.197829,0.122973 -0.05238,0.533124 0.200121,1.09597 0.252498,0.562845 0.612043,1.278385 0.842399,2.012134 -1.043388,2.488456 -1.333698,3.53193 -2.960168,1.154511 -3.584339,-2.944668 -2.912683,-8.850914 -0.418368,-11.054287 -4.728247,-1.26279 -12.928753,-3.963643 -17.155724,-4.921984 -0.721303,1.245595 -1.213637,1.920219 -1.758081,3.309407 -0.49981,1.275302 -1.207143,3.228355 -1.607718,4.884809 -0.400575,1.656454 -0.869755,3.923944 -1.07677,5.92173 -0.207014,1.997785 -0.151863,3.725866 -0.03294,5.361835 0.237838,3.271936 1.21031,6.853417 2.702768,9.635103 1.492459,2.781686 3.33954,4.829723 6.054203,6.754563 2.492233,1.748776 6.235511,3.433984 9.986683,4.367692 3.751172,0.933707 7.973258,1.248206 10.761647,1.181607 -0.948827,-2.0886 -2.872281,-5.358761 -3.272549,-8.244038 -0.42474,-3.061682 -0.433572,-5.16525 2.53019,-6.199516 4.079265,0.08442 5.056073,1.629715 5.535272,6.013832 -0.06493,1.812593 -0.247058,3.057315 -0.637122,5.309135 -0.407038,2.349803 -1.94893,6.630273 -2.452244,8.360328 6.028957,-1.760995 13.702584,-5.820034 18.246222,-10.846217 2.431555,-2.689791 4.186656,-5.514658 5.131247,-8.728755 0.948778,-3.228343 1.360003,-5.716854 1.04603,-9.416073 -0.192092,-3.66997 -1.137816,-7.610647 -2.553895,-11.202881 -0.70804,-1.796117 -1.880935,-4.240996 -2.788743,-5.810303 -0.907808,-1.569306 -1.55053,-2.461478 -2.521142,-4.062598 z"
       id="path873"
       inkscape:connector-curvature="0"
       sodipodi:nodetypes="ccscscsssccccssssscscsccscsscsscc" />
    <text
       id="text885"
       y="56.833813"
       x="29.547447"
       style="font-style:normal;font-variant:normal;font-weight:normal;font-stretch:normal;font-size:9.77329922px;line-height:1.25;font-family:'Franklin Gothic Medium';-inkscape-font-specification:'Franklin Gothic Medium, ';letter-spacing:0px;word-spacing:0px;display:inline;fill:#ffffff;fill-opacity:1;stroke:none;stroke-width:0.1527078"
       xml:space="preserve"><tspan
         style="font-style:normal;font-variant:normal;font-weight:normal;font-stretch:normal;font-size:8.46666622px;font-family:Bard;-inkscape-font-specification:Bard;fill:#ffffff;stroke-width:0.1527078"
         y="56.833813"
         x="29.547447"
         id="tspan883"
         sodipodi:role="line">DEFCON 27</tspan></text>
  </g>
  <g
     id="g828"
     inkscape:groupmode="layer"
     inkscape:label="B.Mask"
     style="display:inline">
    <text
       id="text862"
       y="56.833813"
       x="29.547447"
       style="font-style:normal;font-variant:normal;font-weight:normal;font-stretch:normal;font-size:9.77329922px;line-height:1.25;font-family:'Franklin Gothic Medium';-inkscape-font-specification:'Franklin Gothic Medium, ';letter-spacing:0px;word-spacing:0px;display:inline;fill:#000000;fill-opacity:1;stroke:none;stroke-width:0.1527078"
       xml:space="preserve"><tspan
         style="font-style:normal;font-variant:normal;font-weight:normal;font-stretch:normal;font-size:8.46666622px;font-family:Bard;-inkscape-font-specification:Bard;fill:#000000;stroke-width:0.1527078"
         y="56.833813"
         x="29.547447"
         id="tspan860"
         sodipodi:role="line">DEFCON 27</tspan></text>
    <path
       d="m 73.039914,40.108497 c 0.01562,-0.01502 0.02841,-0.134256 0.02841,-0.264978 0,-0.188915 0.01246,-0.233065 0.06075,-0.215259 0.03543,0.01307 0.08978,-0.02018 0.130397,-0.07977 0.102117,-0.149809 0.187818,-0.166872 0.235291,-0.04683 0.06348,0.160497 0.14679,0.119617 0.231164,-0.11343 0.101463,-0.280236 0.358137,-0.645163 0.453791,-0.645163 0.04596,0 0.214837,-0.184499 0.440567,-0.481313 0.201321,-0.264722 0.435801,-0.561203 0.521054,-0.658835 l 0.155005,-0.177522 -0.02462,-0.365234 c -0.02405,-0.356901 -0.02246,-0.365234 0.06981,-0.365234 0.06383,0 0.108812,-0.0365 0.13884,-0.112648 0.02984,-0.07569 0.218139,-0.229494 0.573973,-0.468819 1.129744,-0.759846 1.213945,-0.823812 1.394252,-1.059194 0.277838,-0.36279 0.364902,-0.582926 0.336218,-0.85008 -0.04564,-0.42513 -0.28981,-0.552024 -1.073028,-0.557631 -0.477521,-0.0034 -0.575278,-0.02504 -0.575278,-0.12722 0,-0.06509 -0.126791,-0.140208 -0.282433,-0.167333 -0.05748,-0.01002 -0.203092,0.0099 -0.323594,0.04433 -0.297494,0.08492 -0.57673,0.07907 -0.757597,-0.01589 -0.382187,-0.200666 -0.423802,-0.211572 -0.556209,-0.14575 -0.06769,0.03365 -0.144472,0.09959 -0.170599,0.146544 -0.03004,0.05396 -0.07361,0.07693 -0.11845,0.06245 -0.576571,-0.186279 -0.827323,-0.224438 -1.381601,-0.210255 -0.818214,0.02094 -1.312342,0.135101 -1.63009,0.376589 -0.28969,0.220188 -0.389019,0.509397 -0.267504,0.77883 0.09895,0.219394 0.455402,0.688891 0.616786,0.812419 0.601766,0.460563 0.879737,0.59839 1.259781,0.624606 0.264028,0.01822 0.287639,0.02743 0.287639,0.112278 0,0.05084 -0.06644,0.182002 -0.147655,0.291475 -0.08121,0.109476 -0.205089,0.292167 -0.275281,0.405979 -0.07019,0.113813 -0.213972,0.26654 -0.31952,0.339403 -0.229139,0.15818 -0.295096,0.241757 -0.125163,0.158615 0.06703,-0.0328 0.16502,-0.07243 0.217754,-0.08807 0.09056,-0.02685 0.09567,-0.01749 0.09215,0.168907 -0.0021,0.108534 -0.0269,0.354021 -0.05523,0.545522 -0.04145,0.280224 -0.04066,0.383616 0.004,0.529725 0.03054,0.09985 0.06786,0.362521 0.08294,0.583719 0.01508,0.221199 0.03988,0.402178 0.05511,0.402178 0.01523,0 0.0507,-0.02212 0.07882,-0.04916 0.03977,-0.03823 0.05156,-0.0086 0.05306,0.133129 0.0025,0.23423 0.06218,0.356824 0.2866,0.58843 0.181186,0.186995 0.225597,0.212481 0.279663,0.16051 z M 72.7584,39.809802 c -0.204277,-0.218409 -0.269781,-0.422122 -0.219165,-0.681531 0.02999,-0.153675 -0.0044,-0.177548 -0.09767,-0.06774 -0.05361,0.06313 -0.05827,0.03502 -0.03906,-0.235536 0.01957,-0.275641 0.01584,-0.296698 -0.03628,-0.204814 -0.05443,0.09596 -0.05795,0.0873 -0.05587,-0.137596 0.0014,-0.152215 -0.01763,-0.251793 -0.05204,-0.272249 -0.06714,-0.03989 -0.02427,-0.478266 0.06739,-0.68916 0.07034,-0.161816 0.08021,-0.310101 0.01819,-0.27326 -0.02573,0.01529 -0.04261,-0.04054 -0.04261,-0.14095 0,-0.129852 0.01634,-0.166949 0.07457,-0.169407 0.09645,-0.0041 0.163155,-0.01676 0.488001,-0.09295 0.147615,-0.03462 0.30571,-0.06864 0.351319,-0.0756 0.04562,-0.007 0.146763,-0.07146 0.224759,-0.143331 0.172637,-0.159076 0.278917,-0.195507 0.395424,-0.135574 0.118395,0.06091 0.251951,0.01478 0.298586,-0.103144 0.03097,-0.07831 0.06605,-0.09475 0.189122,-0.08866 0.08311,0.0041 0.151197,0.0213 0.151291,0.0382 9.4e-5,0.0169 0.04334,0.02927 0.09607,0.02749 0.05273,-0.0018 0.07191,-0.01253 0.04261,-0.0239 -0.0293,-0.01136 -0.05327,-0.04875 -0.05327,-0.08307 0,-0.04081 -0.02399,-0.05356 -0.06932,-0.03684 -0.03813,0.01407 -0.09395,0.0059 -0.124046,-0.01809 -0.03805,-0.03036 -0.06314,-0.03058 -0.08234,-7.14e-4 -0.03645,0.05669 -0.206061,0.05501 -0.266026,-0.0026 -0.05379,-0.05171 -0.154513,-0.01001 -0.11695,0.04842 0.01349,0.02097 0.06174,0.03813 0.107229,0.03813 0.103965,0 0.107237,0.06643 0.0058,0.118589 -0.04697,0.02417 -0.100837,0.02497 -0.138493,0.0021 -0.1072,-0.06519 -0.242683,-0.04209 -0.373452,0.06368 -0.06963,0.05632 -0.145458,0.102407 -0.168509,0.102407 -0.02305,0 -0.06656,0.02856 -0.0967,0.06347 -0.07276,0.08427 -0.37802,0.06407 -0.43869,-0.02904 -0.03415,-0.0524 -0.01898,-0.09988 0.06619,-0.207221 0.106855,-0.134665 0.490105,-0.35973 0.612565,-0.35973 0.03299,0 0.05999,-0.01558 0.05999,-0.03463 0,-0.04699 -0.341065,0.03959 -0.470769,0.119515 -0.05748,0.03542 -0.124265,0.07548 -0.148401,0.08901 -0.029,0.01626 -0.04113,-0.101833 -0.03575,-0.348209 0.0067,-0.305134 0.02041,-0.37454 0.07571,-0.382349 0.05145,-0.0073 0.06141,0.01403 0.04178,0.08923 -0.04178,0.159998 0.01477,0.289146 0.150225,0.343076 0.234399,0.09333 0.405678,-0.04315 0.395051,-0.314825 -0.0029,-0.07386 0.01334,-0.134293 0.03606,-0.134293 0.02272,0 0.04261,-0.03226 0.0442,-0.07169 0.0023,-0.05707 0.01231,-0.0529 0.04913,0.02048 0.02543,0.05069 0.08203,0.09217 0.125768,0.09217 0.06355,0 0.07415,0.02057 0.05279,0.102407 -0.04349,0.166552 0.01266,0.29232 0.155978,0.349387 0.176778,0.07039 0.437464,0.01147 0.458452,-0.103609 0.01485,-0.08148 0.01459,-0.08148 -0.04867,-9.34e-4 -0.05883,0.07491 -0.06207,0.06722 -0.0431,-0.102407 0.03103,-0.277471 -0.03991,-0.342781 -0.360202,-0.33167 -0.22894,0.0079 -0.261299,-7.69e-4 -0.286467,-0.07696 -0.03546,-0.10738 0.04108,-0.199832 0.227422,-0.274704 0.09988,-0.04013 0.158135,-0.04445 0.195674,-0.01449 0.02941,0.02346 0.06608,0.03052 0.0815,0.0157 0.01542,-0.01482 0.02804,0.0038 0.02804,0.04132 0,0.06039 0.141169,0.08848 0.325485,0.06477 0.01496,-0.0019 0.04268,0.02059 0.0616,0.05002 0.01892,0.02943 0.04696,0.04145 0.0623,0.02671 0.055,-0.05287 -0.03109,-0.114421 -0.195355,-0.13967 -0.09196,-0.01414 -0.189083,-0.05105 -0.215836,-0.08203 -0.107476,-0.124486 -0.545543,-0.02652 -0.611354,0.136726 -0.02627,0.06515 -0.03504,0.06624 -0.07974,0.0099 -0.134126,-0.169112 -0.465989,-0.273797 -0.50562,-0.159499 -0.0083,0.02389 -0.077,0.04513 -0.152701,0.0472 -0.0757,0.0021 -0.137641,0.01939 -0.137641,0.03849 0,0.0191 -0.04315,0.03498 -0.09588,0.03529 -0.178763,0.001 -0.268943,0.04498 -0.320025,0.155915 -0.06243,0.135587 -0.01583,0.348234 0.06568,0.299719 0.03844,-0.02288 0.0433,-0.06187 0.01642,-0.131695 -0.03003,-0.07802 -0.01982,-0.1145 0.0478,-0.170879 0.04729,-0.03943 0.12619,-0.07449 0.17534,-0.07792 0.04915,-0.0034 0.110731,-0.0083 0.136855,-0.01086 0.02612,-0.0026 0.07861,-0.02944 0.116634,-0.05978 0.04039,-0.03223 0.112202,-0.04477 0.172703,-0.03018 0.06316,0.01524 0.110177,0.0059 0.120521,-0.02392 0.02695,-0.07771 0.330999,0.122111 0.330999,0.217525 0,0.04393 -0.02527,0.08919 -0.05616,0.100587 -0.04846,0.01788 -0.570645,0.0521 -0.874158,0.0573 -0.06046,0.001 -0.09201,0.02168 -0.08057,0.05272 0.01034,0.02806 0.06771,0.04778 0.1275,0.04381 0.08393,-0.0056 0.114904,0.01654 0.13591,0.097 0.01497,0.05732 0.01868,0.112407 0.0083,0.12243 -0.01043,0.01002 -0.140383,-0.0029 -0.288784,-0.02881 -0.818534,-0.142681 -1.801741,-0.9833 -1.857804,-1.588333 -0.01529,-0.165029 -0.0017,-0.208898 0.09469,-0.306568 0.179575,-0.181875 0.402642,-0.303112 0.745718,-0.405275 0.283551,-0.08444 0.403707,-0.09509 1.065331,-0.09441 0.705808,7.41e-4 0.765107,0.007 1.107638,0.117572 0.625442,0.201857 1.124044,0.513327 1.769914,1.105636 0.274895,0.2521 0.365288,0.31165 0.47342,0.311867 0.125087,2.4e-4 0.135203,-0.0109 0.157895,-0.173823 0.01333,-0.09575 0.03668,-0.35009 0.05187,-0.565196 l 0.02763,-0.391105 0.538898,0.004 c 0.80483,0.006 1.016165,0.127813 0.978027,0.563609 -0.03269,0.373465 -0.469332,0.922174 -0.980784,1.232506 -0.266612,0.161777 -0.310877,0.187366 -0.37453,0.21659 -0.03516,0.01614 -0.07351,0.04033 -0.08523,0.05376 -0.01172,0.01343 -0.07331,0.05621 -0.136868,0.09508 l -0.115566,0.07066 -0.04422,-0.153533 c -0.07165,-0.248734 -0.09902,-0.270649 -0.304898,-0.244113 -0.198777,0.02563 -0.566503,-0.09351 -0.663315,-0.214901 -0.03836,-0.0481 -0.06241,-0.05182 -0.10069,-0.01556 -0.07041,0.0667 -0.01746,0.129557 0.142528,0.169189 0.0938,0.02324 0.140651,0.06182 0.150012,0.123537 0.0075,0.04936 -0.0057,0.08974 -0.02928,0.08974 -0.02549,0 -0.03275,0.0601 -0.0179,0.148068 0.02316,0.137212 0.01828,0.146019 -0.0666,0.120128 -0.06713,-0.02048 -0.0916,-0.01079 -0.0916,0.03626 0,0.03531 -0.02876,0.0642 -0.06392,0.0642 -0.04443,0 -0.06392,0.04297 -0.06392,0.14095 0,0.07752 -0.01923,0.152381 -0.04273,0.166334 -0.02841,0.01688 -0.02791,0.052 0.0015,0.104825 0.0701,0.125912 0.104834,0.09363 0.10915,-0.101434 0.004,-0.179545 0.104097,-0.339901 0.182971,-0.29305 0.04678,0.02779 0.09002,-0.07084 0.09002,-0.205313 0,-0.05448 0.02157,-0.09906 0.04794,-0.09906 0.03015,0 0.03879,-0.04399 0.02327,-0.118559 -0.02136,-0.10265 -0.0135,-0.11575 0.05859,-0.09763 0.0992,0.02494 0.107986,0.104506 0.01934,0.175231 -0.03516,0.02805 -0.06392,0.103354 -0.06392,0.167345 0,0.06399 -0.03835,0.209883 -0.08523,0.324208 -0.04751,0.115865 -0.08299,0.29328 -0.08019,0.400897 0.0044,0.167167 0.009,0.176575 0.0343,0.07017 0.02254,-0.09467 0.03679,-0.0447 0.06204,0.217602 0.02715,0.28199 0.02093,0.357874 -0.03617,0.441655 -0.03792,0.05564 -0.08707,0.0904 -0.109206,0.07725 -0.02214,-0.01315 -0.02889,0.0045 -0.01501,0.03931 0.01503,0.03766 -0.0032,0.07373 -0.04516,0.0892 -0.03872,0.01428 -0.09345,0.07782 -0.121608,0.141194 -0.06958,0.156567 -0.686832,0.907184 -0.70461,0.856851 -0.01974,-0.05589 -0.09233,-0.05057 -0.09233,0.0068 0,0.02584 -0.06765,0.126345 -0.150331,0.223337 -0.08268,0.09699 -0.194796,0.290055 -0.249141,0.429034 -0.07033,0.179839 -0.106841,0.232579 -0.126655,0.182937 -0.05233,-0.131094 -0.02921,-0.234217 0.05739,-0.255979 0.05515,-0.01386 0.08523,-0.05587 0.08523,-0.119053 0,-0.141642 -0.04742,-0.117699 -0.191759,0.0968 -0.154433,0.229494 -0.222228,0.258398 -0.246225,0.104983 -0.01528,-0.09771 -0.01896,-0.0924 -0.02438,0.03518 -0.0035,0.08264 -0.01824,0.179954 -0.03273,0.216258 -0.02366,0.05927 -0.03199,0.05858 -0.08174,-0.0068 -0.08398,-0.110399 -0.126285,-0.03077 -0.126285,0.237686 0,0.133295 -0.01261,0.242359 -0.02801,0.242359 -0.01541,0 -0.113502,-0.0914 -0.217993,-0.203124 z m 0.411897,-0.721892 c 0.01423,-0.03564 0.02526,-0.09555 0.02451,-0.133129 -0.0012,-0.05895 -0.0099,-0.05741 -0.06392,0.01118 -0.06985,0.08877 -0.08271,0.186739 -0.02451,0.186739 0.02093,0 0.04969,-0.02916 0.06392,-0.06479 z m -0.400271,-0.419216 c 0,-0.08863 0.0112,-0.223362 0.02489,-0.299399 0.01966,-0.109194 0.01464,-0.125336 -0.02389,-0.07681 -0.03825,0.04817 -0.04265,0.03047 -0.02041,-0.08193 0.02173,-0.10977 0.01655,-0.132527 -0.02208,-0.09713 -0.06594,0.06043 -0.116802,0.406785 -0.05428,0.36965 0.03001,-0.01783 0.03766,0.02617 0.02292,0.131785 -0.01322,0.09475 -0.003,0.169906 0.02536,0.186765 0.03183,0.01891 0.04748,-0.02492 0.04748,-0.132937 z m 1.106692,-0.228546 c 0.02922,-0.100317 0.04458,-0.206837 0.03414,-0.236714 -0.01044,-0.02987 -0.04345,0.04345 -0.07335,0.162942 -0.06661,0.266181 -0.03445,0.326666 0.03922,0.07376 z m 0.699456,-0.680635 c 0.04148,-0.09037 0.09031,-0.155466 0.108503,-0.14465 0.05928,0.03522 0.130912,-0.181887 0.125083,-0.379084 l -0.0057,-0.192641 -0.02912,0.202318 c -0.01601,0.111273 -0.05221,0.209717 -0.08043,0.218754 -0.05182,0.01661 -0.145232,0.168254 -0.219858,0.356939 -0.06673,0.168716 0.01995,0.116096 0.101517,-0.06163 z m -2.109355,-0.168101 c 0.0027,-0.03639 0.04363,-0.113441 0.09092,-0.171224 0.04729,-0.05779 0.06826,-0.115592 0.04661,-0.128457 -0.02165,-0.01286 -0.02855,-0.06312 -0.01534,-0.111676 0.01646,-0.06049 0.0085,-0.07906 -0.02531,-0.05899 -0.02713,0.01612 -0.04933,0.07551 -0.04933,0.131989 0,0.05647 -0.02039,0.139299 -0.04531,0.184064 -0.02492,0.04476 -0.03673,0.112671 -0.02625,0.150922 0.01649,0.06015 0.01973,0.06061 0.024,0.0034 z m 2.518442,-0.517564 c -4.94e-4,-0.08778 -0.0098,-0.09908 -0.04196,-0.0512 -0.05388,0.08015 -0.05388,0.163851 0,0.163851 0.02344,0 0.04232,-0.05069 0.04196,-0.112647 z m -1.107677,0.07524 c 0.145337,-0.01826 0.195221,-0.04344 0.207326,-0.104661 0.01327,-0.0671 0.0054,-0.07217 -0.04719,-0.03025 -0.03905,0.03115 -0.166924,0.04629 -0.335166,0.03966 -0.219072,-0.0086 -0.2821,-0.02666 -0.323781,-0.09264 -0.05133,-0.08126 -0.05177,-0.08123 -0.05327,0.0033 -0.0026,0.143613 0.237994,0.224028 0.552081,0.184576 z m 0.362598,-0.313378 c 0.09375,-0.03327 0.232988,-0.08873 0.309412,-0.12325 0.07643,-0.03452 0.160413,-0.05001 0.186633,-0.03444 0.02879,0.0171 0.03962,0.0058 0.02735,-0.02858 -0.01545,-0.04327 -0.09592,-0.05391 -0.335779,-0.0444 -0.173502,0.0069 -0.44969,0.01609 -0.613751,0.02048 -0.325698,0.0087 -0.505313,0.0964 -0.414027,0.202126 0.06709,0.07771 0.628718,0.0831 0.84016,0.0081 z m -0.362212,0.0059 c 0,-0.0094 -0.01218,-0.04764 -0.02707,-0.08493 -0.02238,-0.05606 -0.0026,-0.06551 0.113905,-0.05455 0.155259,0.01459 0.21802,0.0977 0.09663,0.127946 -0.108052,0.02692 -0.183464,0.03167 -0.183464,0.01154 z m -0.398927,-0.08528 c 0.01349,-0.03379 0.05124,-0.06144 0.08389,-0.06144 0.03265,0 0.05936,0.02765 0.05936,0.06144 0,0.03381 -0.03773,0.06144 -0.08389,0.06144 -0.05706,0 -0.07605,-0.01965 -0.05936,-0.06144 z m 1.274802,-0.310792 c 0.01575,-0.02449 0.0073,-0.06505 -0.01879,-0.09012 -0.03482,-0.03347 -0.04742,-0.02164 -0.04742,0.04453 0,0.09891 0.02213,0.114145 0.06621,0.04559 z m -0.186313,-0.410665 c 0.02954,-0.01755 0.04133,-0.04381 0.0262,-0.05836 -0.03424,-0.03292 -0.204384,0.01611 -0.204384,0.05889 0,0.04072 0.109301,0.0404 0.17819,-5.49e-4 z m -0.902615,-0.137481 c 0,-0.03654 -0.025,-0.05094 -0.06367,-0.03667 -0.03502,0.01292 -0.05307,0.03999 -0.0401,0.06016 0.03719,0.05784 0.103774,0.04276 0.103774,-0.02349 z m 1.106839,-0.389774 c 0.05508,-0.03272 0.05507,-0.03958 -9.5e-5,-0.05692 -0.0345,-0.01084 -0.120255,-0.01604 -0.190561,-0.01155 -0.07031,0.0045 -0.151809,-0.0083 -0.181106,-0.02847 -0.03311,-0.02277 -0.05327,-0.02014 -0.05327,0.0069 0,0.02396 0.01866,0.05465 0.04146,0.06819 0.07661,0.04552 0.320345,0.05938 0.383573,0.02182 z m 0.10053,-0.150846 c 0.05786,-0.05562 0.02975,-0.175423 -0.03551,-0.151357 -0.03516,0.01297 -0.06392,0.05847 -0.06392,0.101122 0,0.07781 0.04637,0.101241 0.09943,0.05023 z M 71.812389,34.59039 c 0.07092,-0.07035 0.185354,-0.169394 0.254281,-0.220086 0.109658,-0.08065 0.114466,-0.09217 0.03847,-0.09217 -0.08901,0 -0.485617,0.333987 -0.485617,0.408937 0,0.06739 0.05552,0.03956 0.192878,-0.09669 z m -0.160918,-0.06875 c 0.138866,-0.125099 0.175526,-0.202535 0.09588,-0.202535 -0.02344,0 -0.04261,0.02058 -0.04261,0.04574 0,0.0267 -0.04435,0.03759 -0.106534,0.02616 -0.05859,-0.01077 -0.106533,-0.0037 -0.106533,0.01571 0,0.0194 0.01918,0.03528 0.04261,0.03528 0.02344,0 0.04261,0.02058 0.04261,0.04574 0,0.02601 -0.03784,0.03623 -0.08771,0.02369 -0.06419,-0.01614 -0.08419,-0.0046 -0.07457,0.04303 0.02181,0.108057 0.09114,0.09845 0.23685,-0.03282 z m 0.692465,2.333598 c 0,-0.0245 0.09531,-0.184102 0.211814,-0.354687 0.220218,-0.322453 0.307508,-0.336176 0.196394,-0.03088 -0.04364,0.119908 -0.04711,0.178418 -0.01294,0.218178 0.05639,0.0656 -0.02567,0.128418 -0.169028,0.129378 -0.05135,3.57e-4 -0.105216,0.01906 -0.119702,0.04159 -0.03516,0.05469 -0.106533,0.05229 -0.106533,-0.0036 z m 2.847496,-0.356901 c 0.0075,-0.05182 0.05026,-0.171634 0.09494,-0.266258 0.04469,-0.09462 0.08167,-0.221468 0.08219,-0.281901 9.06e-4,-0.106466 0.13089,-0.229878 0.305736,-0.290285 0.112185,-0.03876 0.21031,0.06171 0.235319,0.240938 0.02244,0.160804 0.01684,0.169944 -0.192785,0.314709 -0.118742,0.082 -0.246571,0.206133 -0.284071,0.275833 -0.04987,0.0927 -0.09326,0.123307 -0.161597,0.113959 -0.07027,-0.0096 -0.09003,-0.03613 -0.07972,-0.107002 z m 0.345886,-0.230428 c 0.02867,-0.03321 0.04591,-0.117346 0.03831,-0.186983 -0.01426,-0.130722 0.06023,-0.214427 0.158561,-0.178149 0.02905,0.01072 0.06548,-2.04e-4 0.08095,-0.02427 0.04443,-0.0691 -0.179442,-0.05227 -0.298,0.0224 -0.118125,0.0744 -0.137174,0.138659 -0.04111,0.138659 0.07551,0 0.08138,0.05595 0.01785,0.170047 -0.05666,0.101764 -0.02768,0.140656 0.04343,0.05829 z m -1.616639,-0.437547 c 0,-0.02012 0.02763,-0.03658 0.06141,-0.03658 0.08065,0 0.111751,-0.05241 0.06982,-0.117629 -0.02632,-0.04094 -0.04881,-0.03767 -0.103721,0.01512 -0.08471,0.08143 -0.09715,-0.0036 -0.01549,-0.105902 0.07874,-0.09866 0.167563,-0.113966 0.296934,-0.05118 0.126127,0.06121 0.16,0.215745 0.06392,0.291603 -0.10525,0.0831 -0.372866,0.08637 -0.372866,0.0046 z m -0.743907,0.0072 c -0.01349,-0.02097 -0.0059,-0.04921 0.01693,-0.06276 0.05725,-0.03401 0.0068,-0.144893 -0.06592,-0.144893 -0.03265,0 -0.06087,0.02304 -0.06273,0.0512 -0.0025,0.03852 -0.0089,0.03793 -0.02568,-0.0024 -0.01227,-0.02946 0.01031,-0.08823 0.05018,-0.130581 0.05897,-0.06264 0.09358,-0.0693 0.185474,-0.03571 0.06214,0.02271 0.121873,0.03751 0.132741,0.03289 0.01087,-0.0046 0.03875,0.02054 0.06195,0.0559 0.06237,0.09504 -0.04982,0.27445 -0.171625,0.27445 -0.05325,0 -0.10785,-0.01716 -0.121333,-0.03813 z m 2.391934,-1.278409 c -0.436693,-0.417782 -0.809918,-0.698287 -1.193863,-0.89729 l -0.334194,-0.173208 0.108609,-0.09681 c 0.143553,-0.127951 0.251884,-0.122108 0.504314,0.0272 0.269222,0.159243 0.49687,0.18816 0.828641,0.105264 0.534956,-0.133654 0.61174,-0.07464 0.61174,0.470202 0,0.194445 -0.01232,0.466847 -0.02738,0.605327 -0.03676,0.338045 -0.108091,0.33222 -0.497869,-0.04069 z m -3.927875,2.76985 c 0.166737,-0.138147 0.177084,-0.181618 0.02454,-0.103141 -0.06241,0.03211 -0.246491,0.251165 -0.206634,0.245904 0.0064,-8.51e-4 0.08834,-0.06509 0.182092,-0.142755 z"
       id="path12"
       inkscape:connector-curvature="0"
       style="display:inline;stroke-width:0.04177985" />
    <path
       style="fill:#000000;fill-opacity:1;stroke:#000000;stroke-width:0;stroke-miterlimit:4;stroke-dasharray:none;stroke-opacity:1"
       d="m 77.641749,36.566154 c -0.317392,0 -0.672991,0.07271 -0.672991,0.137635 0,0.08246 0.316168,0.537421 0.609523,0.877081 0.28005,0.324267 0.436637,0.415535 0.487093,0.284034 0.03744,-0.09759 0.251584,-0.195484 0.357333,-0.163464 0.254374,0.07709 0.416071,0.367184 0.375429,0.673557 -0.02543,0.191592 -0.02175,0.201122 0.09146,0.243098 0.192298,0.07126 0.267458,0.03907 0.416866,-0.177957 0.127921,-0.185832 0.140147,-0.228054 0.125164,-0.43246 -0.05846,-0.796986 -0.858747,-1.441564 -1.789883,-1.441564 z m -0.796553,0.177222 c -0.104608,-0.004 -0.455517,0.207525 -0.620385,0.386374 -0.190919,0.207159 -0.366052,0.557363 -0.39803,0.795834 -0.02206,0.164598 -0.01195,0.28434 0.05034,0.414365 0.0016,0.0073 0.0058,0.01409 0.01009,0.01992 0.04612,0.08922 0.116738,0.184452 0.219199,0.303213 0.30018,0.347928 0.368018,0.501772 0.368836,0.836456 7.23e-4,0.296842 0.0088,0.313663 0.21013,0.435929 0.241382,0.146613 0.283482,0.126421 0.283482,-0.136042 0,-0.124582 0.01869,-0.226521 0.04118,-0.226521 0.02267,0 0.04118,0.108185 0.04118,0.242148 0,0.303797 0.05941,0.358713 0.401572,0.370929 0.133805,0.0049 0.133867,0.0049 0.133867,-0.201183 0,-0.113242 0.01869,-0.205932 0.04118,-0.205932 0.02267,0 0.04118,0.09529 0.04118,0.211723 V 40.20222 L 77.8793,40.1771 c 0.289028,-0.03419 0.325159,-0.07443 0.325159,-0.362239 0,-0.133928 0.01838,-0.242148 0.04117,-0.242148 0.02267,0 0.04118,0.101936 0.04118,0.226521 0,0.01164 6.25e-4,0.02023 8.03e-4,0.03113 v 0.03674 c 0,0.004 4.97e-4,0.0079 0.0016,0.01195 0.01044,0.184269 0.06763,0.186169 0.281399,0.05635 0.203022,-0.123296 0.209272,-0.137206 0.211019,-0.465537 8.12e-4,-0.196556 0.02758,-0.345458 0.08303,-0.467862 0.108622,-0.239421 0.103714,-0.274871 -0.04678,-0.337221 -0.09893,-0.04094 -0.145939,-0.04207 -0.205381,-0.0049 -0.139168,0.08693 -0.341502,0.05822 -0.459172,-0.06517 -0.117321,-0.122989 -0.195637,-0.295401 -0.195637,-0.430702 0,-0.05083 -0.131293,-0.222446 -0.322977,-0.422088 -0.285474,-0.297331 -0.711684,-0.848212 -0.760601,-0.983023 -0.0033,-0.01009 -0.01349,-0.01501 -0.02849,-0.01563 z m 1.372783,0.02696 c 8.08e-4,2.7e-4 0.0016,5.46e-4 0.0024,8.12e-4 -8.08e-4,5.27e-4 -0.0024,8.12e-4 -0.0033,0.0016 3.64e-4,-8.09e-4 6.58e-4,-0.0016 8.11e-4,-0.0024 z m -1.327571,0.925999 c 0.04955,-0.0016 0.0994,0.01195 0.153078,0.03956 0.124552,0.06437 0.254773,0.284002 0.254773,0.429648 0,0.266415 -0.230414,0.542194 -0.453061,0.542194 -0.109687,0 -0.177558,-0.03003 -0.255659,-0.113277 -0.20388,-0.217176 -0.186293,-0.548666 0.04038,-0.760845 0.09633,-0.09017 0.177896,-0.134663 0.260471,-0.137298 z m 0.737351,0.970227 c 0.03857,0 0.113219,0.257561 0.09259,0.319454 -0.0095,0.02818 -0.05107,0.05123 -0.09259,0.05123 -0.04152,0 -0.08322,-0.02298 -0.09259,-0.05123 -0.02053,-0.06186 0.05398,-0.319454 0.09259,-0.319454 z m -0.17569,0.123327 c 2.11e-4,3.9e-5 4.29e-4,4.9e-5 6.4e-4,8e-5 -2.02e-4,7.29e-4 -4.29e-4,0.0016 -6.4e-4,0.0024 z"
       id="path66"
       inkscape:connector-curvature="0" />
  </g>
  <g
     id="g830"
     inkscape:groupmode="layer"
     inkscape:label="B.Silk"
     style="display:inline">
    <text
       xml:space="preserve"
       style="font-style:normal;font-variant:normal;font-weight:normal;font-stretch:normal;font-size:4.93888855px;line-height:1.25;font-family:'Franklin Gothic Medium';-inkscape-font-specification:'Franklin Gothic Medium, ';letter-spacing:0px;word-spacing:0px;fill:#000000;fill-opacity:1;stroke:none;stroke-width:0.26458332"
       x="-55.033955"
       y="59.622906"
       id="text850"
       transform="matrix(-0.90301102,0.42961738,0.42961738,0.90301102,0,0)"><tspan
         sodipodi:role="line"
         id="tspan848"
         x="-55.033955"
         y="59.622906"
         style="font-size:2.11666656px;stroke-width:0.26458332">#SNMPTrapHouse</tspan></text>
  </g>
  <g
     id="g832"
     inkscape:groupmode="layer"
     inkscape:label="F.Cu"
     style="display:none">
    <path
       sodipodi:nodetypes="cssscssssscscscccccssccssssscscsccscsscsscc"
       inkscape:connector-curvature="0"
       id="path874"
       d="m 73.492895,28.78391 c -1.063343,0.602943 -2.326156,1.101494 -3.754718,1.790268 -1.428562,0.688773 -3.022872,1.56777 -4.550775,2.270144 -1.527902,0.702374 -3.072079,1.459636 -4.433444,2.10338 -1.361364,0.643744 -2.424163,1.157433 -3.353112,1.670316 1.06937,0.783452 2.118992,1.578969 2.79448,2.460095 0.752554,0.981654 1.291379,2.029514 1.408325,2.642196 0.05966,0.312561 0.06975,0.825788 0.03973,1.317235 -0.03002,0.491447 -0.149756,0.828822 -0.250519,1.054262 -0.151527,0.339015 -0.297087,0.774916 -0.55474,1.12073 -0.257652,0.345814 -0.577787,0.733834 -0.979244,1.24167 -1.99192,1.474817 -1.634584,0.998279 -1.24877,-0.198689 0.416216,-1.291289 0.52484,-3.723157 -2.300572,-5.653109 -0.852791,0.177462 -1.144153,0.522629 -2.438982,1.057997 -1.04617,0.432555 -2.714147,1.357993 -3.647677,1.769251 -0.297048,0.437166 0.774443,0.185858 1.523037,0.980215 0.252498,0.562845 0.545897,1.096484 0.263623,2.359399 -0.190965,0.756403 -0.412574,1.463198 -0.83148,1.821116 -0.476072,-0.317958 -0.802823,-0.470083 -1.632594,-1.29499 -1.668146,-1.827868 -2.482508,-2.962921 -2.532087,-5.81133 -0.01741,-1.00017 0.286877,-1.980223 0.724947,-2.875791 0.459569,-0.939523 0.963631,-1.78325 1.58721,-2.466385 -4.728247,-1.26279 -13.127191,-3.864424 -17.354162,-4.822765 -0.721303,1.245595 -1.213637,1.920219 -1.758081,3.309407 -0.49981,1.275302 -1.207143,3.228355 -1.607718,4.884809 -0.400575,1.656454 -0.869755,3.923944 -1.07677,5.92173 -0.207014,1.997785 -0.151863,3.725866 -0.03294,5.361835 0.237838,3.271936 1.21031,6.853417 2.702768,9.635103 1.492459,2.781686 3.33954,4.829723 6.054203,6.754563 2.492233,1.748776 6.235511,3.433984 9.986683,4.367692 3.751172,0.933707 7.973258,1.248206 10.761647,1.181607 -0.948827,-2.0886 -2.872281,-5.358761 -3.272549,-8.244038 -0.42474,-3.061682 -0.433572,-5.16525 2.53019,-6.199516 4.079265,0.08442 5.056073,1.629715 5.535272,6.013832 -0.06493,1.812593 -0.247058,3.057315 -0.637122,5.309135 -0.407038,2.349803 -1.94893,6.630273 -2.452244,8.360328 6.028957,-1.760995 13.702584,-5.820034 18.246222,-10.846217 2.431555,-2.689791 4.186656,-5.514658 5.131247,-8.728755 0.948778,-3.228343 1.360003,-5.716854 1.04603,-9.416073 -0.192092,-3.66997 -1.137816,-7.610647 -2.553895,-11.202881 -0.70804,-1.796117 -1.880935,-4.240996 -2.788743,-5.810303 -0.907808,-1.569306 -1.55053,-2.461478 -2.521142,-4.062598 z"
       style="display:inline;fill:#000000;fill-opacity:1;stroke:#000000;stroke-width:0.13507415;stroke-miterlimit:4;stroke-dasharray:none;stroke-opacity:1" />
    <text
       xml:space="preserve"
       style="font-style:normal;font-variant:normal;font-weight:normal;font-stretch:normal;font-size:9.77329922px;line-height:1.25;font-family:'Franklin Gothic Medium';-inkscape-font-specification:'Franklin Gothic Medium, ';letter-spacing:0px;word-spacing:0px;display:inline;fill:#ffffff;fill-opacity:1;stroke:none;stroke-width:0.1527078"
       x="29.547447"
       y="56.833813"
       id="text879"><tspan
         sodipodi:role="line"
         id="tspan877"
         x="29.547447"
         y="56.833813"
         style="font-style:normal;font-variant:normal;font-weight:normal;font-stretch:normal;font-size:8.46666622px;font-family:Bard;-inkscape-font-specification:Bard;fill:#ffffff;stroke-width:0.1527078">DEFCON 27</tspan></text>
  </g>
  <g
     id="g834"
     inkscape:groupmode="layer"
     inkscape:label="F.Mask"
     style="display:none">
    <text
       xml:space="preserve"
       style="font-style:normal;font-variant:normal;font-weight:normal;font-stretch:normal;font-size:9.77329922px;line-height:1.25;font-family:'Franklin Gothic Medium';-inkscape-font-specification:'Franklin Gothic Medium, ';letter-spacing:0px;word-spacing:0px;display:inline;fill:#000000;fill-opacity:1;stroke:none;stroke-width:0.1527078"
       x="29.547447"
       y="56.833813"
       id="text856"><tspan
         sodipodi:role="line"
         id="tspan854"
         x="29.547447"
         y="56.833813"
         style="font-style:normal;font-variant:normal;font-weight:normal;font-stretch:normal;font-size:8.46666622px;font-family:Bard;-inkscape-font-specification:Bard;fill:#000000;stroke-width:0.1527078">DEFCON 27</tspan></text>
  </g>
  <g
     id="g836"
     inkscape:groupmode="layer"
     inkscape:label="F.Silk"
     style="display:none">
    <path
       style="opacity:1;fill:#ffffff;fill-opacity:1;fill-rule:nonzero;stroke:#000000;stroke-width:0.07647414;stroke-linecap:butt;stroke-linejoin:round;stroke-miterlimit:4;stroke-dasharray:none;stroke-dashoffset:0;stroke-opacity:1;paint-order:normal"
       d="m 28.87158,58.005169 c -0.204788,-0.525035 -0.617197,-1.847625 -0.795675,-2.55172 -0.413249,-1.630259 -0.798433,-4.577707 -0.798433,-6.109666 v -0.672878 h 8.080821 c 4.444451,0 17.057452,-0.02289 28.028889,-0.05088 l 19.948067,-0.05088 -0.03417,2.589639 c -0.04002,3.032543 -0.162707,3.993432 -0.82171,6.435728 l -0.167461,0.620622 H 55.632692 28.953478 Z"
       id="path1086"
       inkscape:connector-curvature="0" />
    <path
       style="opacity:1;fill:#ffffff;fill-opacity:1;fill-rule:nonzero;stroke:#000000;stroke-width:0.07647414;stroke-linecap:butt;stroke-linejoin:round;stroke-miterlimit:4;stroke-dasharray:none;stroke-dashoffset:0;stroke-opacity:1;paint-order:normal"
       d="m 27.2023,47.992768 c 0.0047,-2.303092 0.473622,-5.371951 1.348974,-8.827923 0.581971,-2.297673 1.263187,-4.270288 1.95122,-5.650189 0.225171,-0.451596 1.203268,-2.123223 1.398664,-2.390402 0.01365,-0.01866 9.093099,2.49409 16.468137,4.557587 l 1.277985,0.357574 -0.314026,0.379229 c -0.795835,0.96108 -1.505736,2.291853 -1.872266,3.50974 -0.185215,0.615425 -0.207226,0.810772 -0.210783,1.870671 -0.0045,1.346116 0.07919,1.760144 0.56692,2.804283 0.383607,0.82122 0.956319,1.64144 1.63112,2.336038 0.63836,0.657087 1.560183,1.426113 1.709467,1.426113 0.129935,0 0.498274,-0.799599 0.670317,-1.45514 0.172374,-0.656798 0.171895,-1.543063 -10e-4,-1.963441 -0.188759,-0.458791 -0.636254,-0.815693 -1.221301,-0.974057 -0.437052,-0.118304 -0.487406,-0.152808 -0.529396,-0.362748 -0.02552,-0.127605 -0.03757,-0.239678 -0.02678,-0.249053 0.0108,-0.0094 1.421609,-0.692767 3.135154,-1.518647 L 56.3002,40.3408 l 0.482855,0.344557 c 0.723107,0.515999 1.371496,1.267515 1.755635,2.034867 0.584997,1.168587 0.64701,2.327864 0.196461,3.672661 -0.128615,0.38389 -0.223957,0.727652 -0.211869,0.763914 0.01208,0.03626 0.300487,-0.154295 0.640888,-0.423464 1.070127,-0.846189 1.890216,-1.97306 2.197977,-3.020203 0.155124,-0.527798 0.157775,-1.591507 0.0054,-2.176418 -0.377349,-1.448743 -1.700878,-3.050733 -3.702621,-4.481624 -0.336615,-0.24062 -0.585675,-0.453449 -0.55347,-0.472954 0.05998,-0.03633 5.82444,-2.844544 13.229606,-6.444949 2.288708,-1.112773 4.359477,-2.12312 4.60171,-2.245214 l 0.440423,-0.221989 0.715197,1.089842 c 3.848056,5.86381 6.47782,12.783769 7.153086,18.822633 0.05281,0.472217 0.08151,0.8716 0.06379,0.887515 -0.01772,0.01591 -12.650655,0.04594 -28.073189,0.06672 l -28.040954,0.03778 z"
       id="path1088"
       inkscape:connector-curvature="0" />
    <path
       style="opacity:1;fill:#ffffff;fill-opacity:1;fill-rule:nonzero;stroke:#000000;stroke-width:0.07647414;stroke-linecap:butt;stroke-linejoin:round;stroke-miterlimit:4;stroke-dasharray:none;stroke-dashoffset:0;stroke-opacity:1;paint-order:normal"
       d="m 58.430519,78.238954 c 3.06e-4,-0.0315 0.140364,-0.452398 0.311117,-0.935336 1.742464,-4.928154 2.632746,-8.903126 2.721817,-12.152498 0.04429,-1.615618 -0.03691,-2.592227 -0.289496,-3.481781 -0.607987,-2.141229 -2.12574,-3.242516 -4.309348,-3.126881 -1.821313,0.09645 -2.877084,1.153996 -3.101586,3.106802 -0.242178,2.106559 0.664923,5.257175 2.72367,9.460071 0.48082,0.981581 0.874216,1.797614 0.874216,1.813405 0,0.05995 -2.764356,0.02464 -3.970403,-0.05072 -8.460548,-0.528638 -15.488495,-3.254701 -19.966545,-7.7448 -1.715913,-1.720533 -3.092698,-3.711607 -4.07957,-5.899787 -0.212923,-0.472111 -0.387133,-0.875833 -0.387133,-0.897158 0,-0.02133 12.006382,-0.03877 26.680847,-0.03877 h 26.680846 l -0.213707,0.62992 c -0.962834,2.838025 -2.571235,5.544163 -4.806503,8.086951 -3.932294,4.473285 -10.159211,8.279278 -18.044901,11.029338 -0.806262,0.281176 -0.824287,0.285582 -0.823321,0.201248 z"
       id="path1090"
       inkscape:connector-curvature="0" />
    <path
       style="opacity:1;fill:#000000;fill-opacity:1;fill-rule:nonzero;stroke:#000000;stroke-width:0.07647414;stroke-linecap:butt;stroke-linejoin:round;stroke-miterlimit:4;stroke-dasharray:none;stroke-dashoffset:0;stroke-opacity:1;paint-order:normal"
       d="m 28.583298,56.888996 c -0.658708,-2.051968 -1.107321,-4.661629 -1.206,-7.015517 l -0.04722,-1.12622 7.742703,-1.6e-5 c 4.258487,-8e-6 16.839316,-0.02289 27.957398,-0.05086 l 20.214696,-0.05084 -0.0016,1.520668 c -0.0033,3.4232 -0.216712,5.25866 -0.880386,7.571713 l -0.115016,0.400857 H 55.616258 28.984498 Z"
       id="path1092"
       inkscape:connector-curvature="0" />
    <text
       id="text844"
       y="56.833813"
       x="29.547447"
       style="font-style:normal;font-variant:normal;font-weight:normal;font-stretch:normal;font-size:9.77329922px;line-height:1.25;font-family:'Franklin Gothic Medium';-inkscape-font-specification:'Franklin Gothic Medium, ';letter-spacing:0px;word-spacing:0px;display:inline;fill:#ffffff;fill-opacity:1;stroke:none;stroke-width:0.1527078"
       xml:space="preserve"><tspan
         style="font-style:normal;font-variant:normal;font-weight:normal;font-stretch:normal;font-size:8.46666622px;font-family:Bard;-inkscape-font-specification:Bard;fill:#ffffff;stroke-width:0.1527078"
         y="56.833813"
         x="29.547447"
         id="tspan842"
         sodipodi:role="line">DEFCON 27</tspan></text>
  </g>
  <g
     id="g838"
     inkscape:groupmode="layer"
     inkscape:label="Drill"
     style="display:none" />
</svg>
