G04 #@! TF.GenerationSoftware,KiCad,Pcbnew,(5.1.2)-1*
G04 #@! TF.CreationDate,2019-07-16T14:08:05-05:00*
G04 #@! TF.ProjectId,wutang-snmp-trap,77757461-6e67-42d7-936e-6d702d747261,rev?*
G04 #@! TF.SameCoordinates,Original*
G04 #@! TF.FileFunction,Legend,Bot*
G04 #@! TF.FilePolarity,Positive*
%FSLAX46Y46*%
G04 Gerber Fmt 4.6, Leading zero omitted, Abs format (unit mm)*
G04 Created by KiCad (PCBNEW (5.1.2)-1) date 2019-07-16 14:08:05*
%MOMM*%
%LPD*%
G04 APERTURE LIST*
%ADD10C,0.700000*%
%ADD11C,0.010000*%
%ADD12C,0.120000*%
%ADD13C,0.100000*%
%ADD14C,0.150000*%
%ADD15C,0.050000*%
G04 APERTURE END LIST*
D10*
X-7726680Y-8585200D02*
X-12552680Y-8585200D01*
X2092960Y-8534400D02*
X-2646680Y-8534400D01*
X-12552680Y-8585200D02*
X-12552680Y-16967200D01*
X-12552680Y-16967200D02*
X2179320Y-16967200D01*
X2179320Y-16967200D02*
X2179320Y-8585200D01*
D11*
G36*
X10680700Y13954692D02*
G01*
X10740186Y13950482D01*
X10784749Y13942674D01*
X10824847Y13928625D01*
X10867684Y13907436D01*
X10958784Y13845071D01*
X11038643Y13763405D01*
X11104544Y13667067D01*
X11153769Y13560683D01*
X11183599Y13448881D01*
X11191681Y13355893D01*
X11180504Y13245937D01*
X11147155Y13148134D01*
X11092112Y13063147D01*
X11015858Y12991640D01*
X10918870Y12934277D01*
X10872537Y12914740D01*
X10799614Y12894265D01*
X10720255Y12883671D01*
X10645094Y12883894D01*
X10601273Y12890837D01*
X10543086Y12910667D01*
X10483194Y12939518D01*
X10431169Y12972277D01*
X10402308Y12997143D01*
X10383429Y13019900D01*
X10376461Y13033574D01*
X10376908Y13034534D01*
X10389319Y13043268D01*
X10417210Y13062277D01*
X10454944Y13087722D01*
X10461406Y13092059D01*
X10540562Y13145150D01*
X10590673Y13111989D01*
X10660923Y13079549D01*
X10734670Y13071564D01*
X10809143Y13087875D01*
X10881572Y13128324D01*
X10882107Y13128723D01*
X10922669Y13171301D01*
X10954215Y13227191D01*
X10971111Y13285468D01*
X10972521Y13304120D01*
X10968618Y13340196D01*
X10958402Y13387459D01*
X10944689Y13435364D01*
X10930296Y13473366D01*
X10924373Y13484387D01*
X10914833Y13486424D01*
X10892297Y13480858D01*
X10854989Y13466952D01*
X10801132Y13443969D01*
X10728950Y13411173D01*
X10636665Y13367827D01*
X10592897Y13346974D01*
X10509500Y13307437D01*
X10433712Y13272127D01*
X10368498Y13242376D01*
X10316822Y13219513D01*
X10281647Y13204871D01*
X10265938Y13199781D01*
X10265453Y13199914D01*
X10258270Y13214200D01*
X10245311Y13245874D01*
X10229248Y13288371D01*
X10227605Y13292877D01*
X10197049Y13406157D01*
X10188209Y13515168D01*
X10191152Y13539736D01*
X10402554Y13539736D01*
X10407423Y13489167D01*
X10412490Y13471755D01*
X10425896Y13437060D01*
X10550123Y13495583D01*
X10613056Y13525162D01*
X10678529Y13555822D01*
X10736408Y13582821D01*
X10760008Y13593779D01*
X10801332Y13614311D01*
X10831737Y13632074D01*
X10845468Y13643652D01*
X10845733Y13644647D01*
X10837425Y13658940D01*
X10815796Y13684654D01*
X10791606Y13710036D01*
X10728028Y13758244D01*
X10659669Y13783159D01*
X10590294Y13785017D01*
X10523664Y13764055D01*
X10463543Y13720511D01*
X10435040Y13687596D01*
X10417446Y13649320D01*
X10406256Y13596577D01*
X10402554Y13539736D01*
X10191152Y13539736D01*
X10200450Y13617350D01*
X10233136Y13710139D01*
X10285629Y13790975D01*
X10357295Y13857296D01*
X10369953Y13866028D01*
X10454724Y13914605D01*
X10535867Y13943446D01*
X10622071Y13955032D01*
X10680700Y13954692D01*
X10680700Y13954692D01*
G37*
X10680700Y13954692D02*
X10740186Y13950482D01*
X10784749Y13942674D01*
X10824847Y13928625D01*
X10867684Y13907436D01*
X10958784Y13845071D01*
X11038643Y13763405D01*
X11104544Y13667067D01*
X11153769Y13560683D01*
X11183599Y13448881D01*
X11191681Y13355893D01*
X11180504Y13245937D01*
X11147155Y13148134D01*
X11092112Y13063147D01*
X11015858Y12991640D01*
X10918870Y12934277D01*
X10872537Y12914740D01*
X10799614Y12894265D01*
X10720255Y12883671D01*
X10645094Y12883894D01*
X10601273Y12890837D01*
X10543086Y12910667D01*
X10483194Y12939518D01*
X10431169Y12972277D01*
X10402308Y12997143D01*
X10383429Y13019900D01*
X10376461Y13033574D01*
X10376908Y13034534D01*
X10389319Y13043268D01*
X10417210Y13062277D01*
X10454944Y13087722D01*
X10461406Y13092059D01*
X10540562Y13145150D01*
X10590673Y13111989D01*
X10660923Y13079549D01*
X10734670Y13071564D01*
X10809143Y13087875D01*
X10881572Y13128324D01*
X10882107Y13128723D01*
X10922669Y13171301D01*
X10954215Y13227191D01*
X10971111Y13285468D01*
X10972521Y13304120D01*
X10968618Y13340196D01*
X10958402Y13387459D01*
X10944689Y13435364D01*
X10930296Y13473366D01*
X10924373Y13484387D01*
X10914833Y13486424D01*
X10892297Y13480858D01*
X10854989Y13466952D01*
X10801132Y13443969D01*
X10728950Y13411173D01*
X10636665Y13367827D01*
X10592897Y13346974D01*
X10509500Y13307437D01*
X10433712Y13272127D01*
X10368498Y13242376D01*
X10316822Y13219513D01*
X10281647Y13204871D01*
X10265938Y13199781D01*
X10265453Y13199914D01*
X10258270Y13214200D01*
X10245311Y13245874D01*
X10229248Y13288371D01*
X10227605Y13292877D01*
X10197049Y13406157D01*
X10188209Y13515168D01*
X10191152Y13539736D01*
X10402554Y13539736D01*
X10407423Y13489167D01*
X10412490Y13471755D01*
X10425896Y13437060D01*
X10550123Y13495583D01*
X10613056Y13525162D01*
X10678529Y13555822D01*
X10736408Y13582821D01*
X10760008Y13593779D01*
X10801332Y13614311D01*
X10831737Y13632074D01*
X10845468Y13643652D01*
X10845733Y13644647D01*
X10837425Y13658940D01*
X10815796Y13684654D01*
X10791606Y13710036D01*
X10728028Y13758244D01*
X10659669Y13783159D01*
X10590294Y13785017D01*
X10523664Y13764055D01*
X10463543Y13720511D01*
X10435040Y13687596D01*
X10417446Y13649320D01*
X10406256Y13596577D01*
X10402554Y13539736D01*
X10191152Y13539736D01*
X10200450Y13617350D01*
X10233136Y13710139D01*
X10285629Y13790975D01*
X10357295Y13857296D01*
X10369953Y13866028D01*
X10454724Y13914605D01*
X10535867Y13943446D01*
X10622071Y13955032D01*
X10680700Y13954692D01*
G36*
X11682227Y14419630D02*
G01*
X11721557Y14414618D01*
X11754128Y14403790D01*
X11788344Y14385642D01*
X11855489Y14333743D01*
X11905761Y14269245D01*
X11937480Y14196653D01*
X11948963Y14120468D01*
X11938528Y14045195D01*
X11926984Y14014450D01*
X11903646Y13970553D01*
X11873699Y13929773D01*
X11833184Y13887952D01*
X11778141Y13840931D01*
X11716558Y13793458D01*
X11643314Y13736220D01*
X11591042Y13688950D01*
X11558459Y13649377D01*
X11544280Y13615229D01*
X11547221Y13584236D01*
X11565997Y13554126D01*
X11575472Y13543973D01*
X11616499Y13519605D01*
X11668528Y13512858D01*
X11726862Y13521385D01*
X11786807Y13542837D01*
X11843667Y13574867D01*
X11892747Y13615125D01*
X11929351Y13661265D01*
X11948785Y13710939D01*
X11950700Y13731617D01*
X11952972Y13746653D01*
X11962971Y13758000D01*
X11985463Y13768142D01*
X12025218Y13779562D01*
X12058826Y13787936D01*
X12166952Y13814269D01*
X12173803Y13786969D01*
X12175138Y13748233D01*
X12166015Y13697072D01*
X12148858Y13642951D01*
X12126092Y13595337D01*
X12123779Y13591581D01*
X12065345Y13519206D01*
X11989288Y13455296D01*
X11900733Y13401982D01*
X11804808Y13361394D01*
X11706641Y13335663D01*
X11611358Y13326920D01*
X11524086Y13337294D01*
X11516621Y13339289D01*
X11469984Y13356953D01*
X11425742Y13380737D01*
X11414695Y13388433D01*
X11371701Y13432999D01*
X11333783Y13493523D01*
X11306010Y13560564D01*
X11294543Y13612196D01*
X11292600Y13667197D01*
X11301947Y13717618D01*
X11324631Y13766483D01*
X11362701Y13816819D01*
X11418206Y13871651D01*
X11493193Y13934003D01*
X11533397Y13964987D01*
X11601182Y14017842D01*
X11650057Y14059988D01*
X11682592Y14094272D01*
X11701357Y14123541D01*
X11708922Y14150644D01*
X11709400Y14159999D01*
X11698915Y14202094D01*
X11669998Y14230962D01*
X11626452Y14245652D01*
X11572082Y14245214D01*
X11510692Y14228694D01*
X11483339Y14216538D01*
X11420964Y14177909D01*
X11382613Y14135566D01*
X11367008Y14087977D01*
X11366500Y14076727D01*
X11364241Y14049712D01*
X11352899Y14034513D01*
X11325625Y14023992D01*
X11312525Y14020477D01*
X11266231Y14008397D01*
X11221241Y13996553D01*
X11214100Y13994658D01*
X11176663Y13985815D01*
X11157208Y13987827D01*
X11150981Y14005216D01*
X11153228Y14042507D01*
X11154166Y14051684D01*
X11171766Y14134739D01*
X11207408Y14206809D01*
X11263015Y14270209D01*
X11340505Y14327252D01*
X11417300Y14368785D01*
X11471305Y14393891D01*
X11512190Y14409337D01*
X11549240Y14417432D01*
X11591739Y14420481D01*
X11626850Y14420850D01*
X11682227Y14419630D01*
X11682227Y14419630D01*
G37*
X11682227Y14419630D02*
X11721557Y14414618D01*
X11754128Y14403790D01*
X11788344Y14385642D01*
X11855489Y14333743D01*
X11905761Y14269245D01*
X11937480Y14196653D01*
X11948963Y14120468D01*
X11938528Y14045195D01*
X11926984Y14014450D01*
X11903646Y13970553D01*
X11873699Y13929773D01*
X11833184Y13887952D01*
X11778141Y13840931D01*
X11716558Y13793458D01*
X11643314Y13736220D01*
X11591042Y13688950D01*
X11558459Y13649377D01*
X11544280Y13615229D01*
X11547221Y13584236D01*
X11565997Y13554126D01*
X11575472Y13543973D01*
X11616499Y13519605D01*
X11668528Y13512858D01*
X11726862Y13521385D01*
X11786807Y13542837D01*
X11843667Y13574867D01*
X11892747Y13615125D01*
X11929351Y13661265D01*
X11948785Y13710939D01*
X11950700Y13731617D01*
X11952972Y13746653D01*
X11962971Y13758000D01*
X11985463Y13768142D01*
X12025218Y13779562D01*
X12058826Y13787936D01*
X12166952Y13814269D01*
X12173803Y13786969D01*
X12175138Y13748233D01*
X12166015Y13697072D01*
X12148858Y13642951D01*
X12126092Y13595337D01*
X12123779Y13591581D01*
X12065345Y13519206D01*
X11989288Y13455296D01*
X11900733Y13401982D01*
X11804808Y13361394D01*
X11706641Y13335663D01*
X11611358Y13326920D01*
X11524086Y13337294D01*
X11516621Y13339289D01*
X11469984Y13356953D01*
X11425742Y13380737D01*
X11414695Y13388433D01*
X11371701Y13432999D01*
X11333783Y13493523D01*
X11306010Y13560564D01*
X11294543Y13612196D01*
X11292600Y13667197D01*
X11301947Y13717618D01*
X11324631Y13766483D01*
X11362701Y13816819D01*
X11418206Y13871651D01*
X11493193Y13934003D01*
X11533397Y13964987D01*
X11601182Y14017842D01*
X11650057Y14059988D01*
X11682592Y14094272D01*
X11701357Y14123541D01*
X11708922Y14150644D01*
X11709400Y14159999D01*
X11698915Y14202094D01*
X11669998Y14230962D01*
X11626452Y14245652D01*
X11572082Y14245214D01*
X11510692Y14228694D01*
X11483339Y14216538D01*
X11420964Y14177909D01*
X11382613Y14135566D01*
X11367008Y14087977D01*
X11366500Y14076727D01*
X11364241Y14049712D01*
X11352899Y14034513D01*
X11325625Y14023992D01*
X11312525Y14020477D01*
X11266231Y14008397D01*
X11221241Y13996553D01*
X11214100Y13994658D01*
X11176663Y13985815D01*
X11157208Y13987827D01*
X11150981Y14005216D01*
X11153228Y14042507D01*
X11154166Y14051684D01*
X11171766Y14134739D01*
X11207408Y14206809D01*
X11263015Y14270209D01*
X11340505Y14327252D01*
X11417300Y14368785D01*
X11471305Y14393891D01*
X11512190Y14409337D01*
X11549240Y14417432D01*
X11591739Y14420481D01*
X11626850Y14420850D01*
X11682227Y14419630D01*
G36*
X12748718Y14960243D02*
G01*
X12764770Y14927643D01*
X12788998Y14877736D01*
X12820041Y14813341D01*
X12856539Y14737277D01*
X12897130Y14652362D01*
X12916685Y14611350D01*
X13086109Y14255750D01*
X13086729Y14153275D01*
X13086079Y14099272D01*
X13082063Y14062076D01*
X13072769Y14033137D01*
X13056287Y14003905D01*
X13051795Y13997021D01*
X12999782Y13938866D01*
X12930434Y13891274D01*
X12851160Y13859077D01*
X12833353Y13854591D01*
X12748467Y13848207D01*
X12665121Y13866241D01*
X12587091Y13907810D01*
X12578348Y13914274D01*
X12547903Y13936454D01*
X12527513Y13949281D01*
X12522200Y13950550D01*
X12527525Y13936886D01*
X12541654Y13906517D01*
X12561818Y13865347D01*
X12567465Y13854082D01*
X12588148Y13811626D01*
X12602780Y13778894D01*
X12608872Y13761550D01*
X12608740Y13760250D01*
X12596132Y13753531D01*
X12566043Y13739086D01*
X12524149Y13719621D01*
X12508455Y13712445D01*
X12412160Y13668587D01*
X12194113Y14127269D01*
X12146420Y14227947D01*
X12102329Y14321700D01*
X12063005Y14406000D01*
X12029612Y14478321D01*
X12003313Y14536136D01*
X11985275Y14576920D01*
X11976659Y14598145D01*
X11976082Y14600415D01*
X11986748Y14612400D01*
X12014401Y14630153D01*
X12052549Y14650589D01*
X12094703Y14670624D01*
X12134373Y14687174D01*
X12165069Y14697155D01*
X12180300Y14697483D01*
X12180314Y14697469D01*
X12188360Y14683426D01*
X12205370Y14649968D01*
X12229576Y14600699D01*
X12259212Y14539225D01*
X12292511Y14469152D01*
X12300312Y14452600D01*
X12337038Y14376016D01*
X12373501Y14302577D01*
X12407170Y14237192D01*
X12435514Y14184768D01*
X12456002Y14150215D01*
X12457020Y14148678D01*
X12497604Y14093386D01*
X12535307Y14057266D01*
X12577067Y14036063D01*
X12629824Y14025524D01*
X12662151Y14022943D01*
X12709042Y14020894D01*
X12739104Y14023057D01*
X12760859Y14032041D01*
X12782828Y14050456D01*
X12796681Y14064142D01*
X12824089Y14093832D01*
X12836659Y14117894D01*
X12838595Y14147507D01*
X12836638Y14170341D01*
X12829591Y14201434D01*
X12812915Y14249059D01*
X12786055Y14314543D01*
X12748457Y14399210D01*
X12699568Y14504384D01*
X12677175Y14551551D01*
X12523946Y14872752D01*
X12630546Y14925620D01*
X12677221Y14947947D01*
X12714665Y14964310D01*
X12737637Y14972500D01*
X12742203Y14972719D01*
X12748718Y14960243D01*
X12748718Y14960243D01*
G37*
X12748718Y14960243D02*
X12764770Y14927643D01*
X12788998Y14877736D01*
X12820041Y14813341D01*
X12856539Y14737277D01*
X12897130Y14652362D01*
X12916685Y14611350D01*
X13086109Y14255750D01*
X13086729Y14153275D01*
X13086079Y14099272D01*
X13082063Y14062076D01*
X13072769Y14033137D01*
X13056287Y14003905D01*
X13051795Y13997021D01*
X12999782Y13938866D01*
X12930434Y13891274D01*
X12851160Y13859077D01*
X12833353Y13854591D01*
X12748467Y13848207D01*
X12665121Y13866241D01*
X12587091Y13907810D01*
X12578348Y13914274D01*
X12547903Y13936454D01*
X12527513Y13949281D01*
X12522200Y13950550D01*
X12527525Y13936886D01*
X12541654Y13906517D01*
X12561818Y13865347D01*
X12567465Y13854082D01*
X12588148Y13811626D01*
X12602780Y13778894D01*
X12608872Y13761550D01*
X12608740Y13760250D01*
X12596132Y13753531D01*
X12566043Y13739086D01*
X12524149Y13719621D01*
X12508455Y13712445D01*
X12412160Y13668587D01*
X12194113Y14127269D01*
X12146420Y14227947D01*
X12102329Y14321700D01*
X12063005Y14406000D01*
X12029612Y14478321D01*
X12003313Y14536136D01*
X11985275Y14576920D01*
X11976659Y14598145D01*
X11976082Y14600415D01*
X11986748Y14612400D01*
X12014401Y14630153D01*
X12052549Y14650589D01*
X12094703Y14670624D01*
X12134373Y14687174D01*
X12165069Y14697155D01*
X12180300Y14697483D01*
X12180314Y14697469D01*
X12188360Y14683426D01*
X12205370Y14649968D01*
X12229576Y14600699D01*
X12259212Y14539225D01*
X12292511Y14469152D01*
X12300312Y14452600D01*
X12337038Y14376016D01*
X12373501Y14302577D01*
X12407170Y14237192D01*
X12435514Y14184768D01*
X12456002Y14150215D01*
X12457020Y14148678D01*
X12497604Y14093386D01*
X12535307Y14057266D01*
X12577067Y14036063D01*
X12629824Y14025524D01*
X12662151Y14022943D01*
X12709042Y14020894D01*
X12739104Y14023057D01*
X12760859Y14032041D01*
X12782828Y14050456D01*
X12796681Y14064142D01*
X12824089Y14093832D01*
X12836659Y14117894D01*
X12838595Y14147507D01*
X12836638Y14170341D01*
X12829591Y14201434D01*
X12812915Y14249059D01*
X12786055Y14314543D01*
X12748457Y14399210D01*
X12699568Y14504384D01*
X12677175Y14551551D01*
X12523946Y14872752D01*
X12630546Y14925620D01*
X12677221Y14947947D01*
X12714665Y14964310D01*
X12737637Y14972500D01*
X12742203Y14972719D01*
X12748718Y14960243D01*
G36*
X13616778Y15342053D02*
G01*
X13713983Y15320491D01*
X13806408Y15278194D01*
X13891288Y15215760D01*
X13965859Y15133789D01*
X14024997Y15037641D01*
X14067306Y14936257D01*
X14090157Y14836292D01*
X14095561Y14727953D01*
X14094474Y14699389D01*
X14079281Y14594816D01*
X14044769Y14505597D01*
X13989772Y14430053D01*
X13913125Y14366505D01*
X13832443Y14321768D01*
X13742383Y14290741D01*
X13645923Y14276742D01*
X13551358Y14280336D01*
X13478507Y14297699D01*
X13383208Y14344748D01*
X13296769Y14413170D01*
X13221835Y14499710D01*
X13161055Y14601112D01*
X13117075Y14714121D01*
X13106181Y14755637D01*
X13094180Y14858710D01*
X13098503Y14904737D01*
X13328172Y14904737D01*
X13342559Y14828614D01*
X13369514Y14749338D01*
X13406427Y14671811D01*
X13450688Y14600942D01*
X13499689Y14541634D01*
X13550819Y14498794D01*
X13591233Y14479753D01*
X13628289Y14469935D01*
X13654264Y14467465D01*
X13682352Y14472207D01*
X13706080Y14478559D01*
X13772659Y14509299D01*
X13824061Y14558094D01*
X13857052Y14620706D01*
X13868400Y14691188D01*
X13859742Y14768099D01*
X13835772Y14848899D01*
X13799496Y14928676D01*
X13753917Y15002518D01*
X13702040Y15065514D01*
X13646871Y15112751D01*
X13594848Y15138352D01*
X13530310Y15145343D01*
X13466535Y15131265D01*
X13408971Y15099512D01*
X13363069Y15053477D01*
X13334278Y14996554D01*
X13328962Y14972799D01*
X13328172Y14904737D01*
X13098503Y14904737D01*
X13103875Y14961914D01*
X13133788Y15060064D01*
X13182440Y15147973D01*
X13235450Y15208940D01*
X13324128Y15276321D01*
X13419086Y15320568D01*
X13517557Y15342278D01*
X13616778Y15342053D01*
X13616778Y15342053D01*
G37*
X13616778Y15342053D02*
X13713983Y15320491D01*
X13806408Y15278194D01*
X13891288Y15215760D01*
X13965859Y15133789D01*
X14024997Y15037641D01*
X14067306Y14936257D01*
X14090157Y14836292D01*
X14095561Y14727953D01*
X14094474Y14699389D01*
X14079281Y14594816D01*
X14044769Y14505597D01*
X13989772Y14430053D01*
X13913125Y14366505D01*
X13832443Y14321768D01*
X13742383Y14290741D01*
X13645923Y14276742D01*
X13551358Y14280336D01*
X13478507Y14297699D01*
X13383208Y14344748D01*
X13296769Y14413170D01*
X13221835Y14499710D01*
X13161055Y14601112D01*
X13117075Y14714121D01*
X13106181Y14755637D01*
X13094180Y14858710D01*
X13098503Y14904737D01*
X13328172Y14904737D01*
X13342559Y14828614D01*
X13369514Y14749338D01*
X13406427Y14671811D01*
X13450688Y14600942D01*
X13499689Y14541634D01*
X13550819Y14498794D01*
X13591233Y14479753D01*
X13628289Y14469935D01*
X13654264Y14467465D01*
X13682352Y14472207D01*
X13706080Y14478559D01*
X13772659Y14509299D01*
X13824061Y14558094D01*
X13857052Y14620706D01*
X13868400Y14691188D01*
X13859742Y14768099D01*
X13835772Y14848899D01*
X13799496Y14928676D01*
X13753917Y15002518D01*
X13702040Y15065514D01*
X13646871Y15112751D01*
X13594848Y15138352D01*
X13530310Y15145343D01*
X13466535Y15131265D01*
X13408971Y15099512D01*
X13363069Y15053477D01*
X13334278Y14996554D01*
X13328962Y14972799D01*
X13328172Y14904737D01*
X13098503Y14904737D01*
X13103875Y14961914D01*
X13133788Y15060064D01*
X13182440Y15147973D01*
X13235450Y15208940D01*
X13324128Y15276321D01*
X13419086Y15320568D01*
X13517557Y15342278D01*
X13616778Y15342053D01*
G36*
X14831630Y16316008D02*
G01*
X14841830Y16294092D01*
X14861806Y16251691D01*
X14890400Y16191248D01*
X14926452Y16115203D01*
X14968805Y16025997D01*
X15016300Y15926073D01*
X15067779Y15817871D01*
X15122082Y15703833D01*
X15130534Y15686094D01*
X15184214Y15573271D01*
X15234423Y15467431D01*
X15280128Y15370780D01*
X15320291Y15285521D01*
X15353878Y15213860D01*
X15379852Y15158001D01*
X15397178Y15120149D01*
X15404820Y15102510D01*
X15405100Y15101549D01*
X15394654Y15093080D01*
X15367310Y15077004D01*
X15329059Y15056360D01*
X15285888Y15034189D01*
X15243789Y15013532D01*
X15208751Y14997427D01*
X15186763Y14988916D01*
X15182436Y14988536D01*
X15176166Y15000623D01*
X15160684Y15032407D01*
X15137568Y15080589D01*
X15108399Y15141871D01*
X15074753Y15212955D01*
X15056010Y15252700D01*
X15020274Y15328103D01*
X14987735Y15395862D01*
X14960067Y15452560D01*
X14938947Y15494784D01*
X14926048Y15519117D01*
X14923201Y15523511D01*
X14909680Y15521125D01*
X14877537Y15509460D01*
X14830952Y15490429D01*
X14774104Y15465944D01*
X14711173Y15437918D01*
X14646339Y15408263D01*
X14583782Y15378892D01*
X14527681Y15351717D01*
X14482216Y15328652D01*
X14451566Y15311608D01*
X14439912Y15302499D01*
X14439900Y15302356D01*
X14445127Y15288983D01*
X14459796Y15255991D01*
X14482388Y15206678D01*
X14511386Y15144338D01*
X14545272Y15072267D01*
X14567878Y15024545D01*
X14603772Y14948464D01*
X14635427Y14880373D01*
X14661384Y14823493D01*
X14680183Y14781047D01*
X14690366Y14756257D01*
X14691703Y14751159D01*
X14679115Y14744477D01*
X14648658Y14729746D01*
X14605566Y14709473D01*
X14576280Y14695901D01*
X14465010Y14644608D01*
X14447534Y14685129D01*
X14438756Y14704289D01*
X14420138Y14744027D01*
X14392792Y14802001D01*
X14357827Y14875870D01*
X14316353Y14963293D01*
X14269480Y15061929D01*
X14218317Y15169437D01*
X14163975Y15283474D01*
X14149229Y15314395D01*
X14094898Y15428457D01*
X14044030Y15535562D01*
X13997648Y15633529D01*
X13956780Y15720178D01*
X13922449Y15793328D01*
X13895683Y15850797D01*
X13877505Y15890406D01*
X13868942Y15909973D01*
X13868400Y15911639D01*
X13878839Y15920159D01*
X13906166Y15936286D01*
X13944398Y15956977D01*
X13987548Y15979188D01*
X14029632Y15999875D01*
X14064665Y16015994D01*
X14086663Y16024500D01*
X14091006Y16024865D01*
X14097286Y16012766D01*
X14112745Y15981061D01*
X14135761Y15933134D01*
X14164711Y15872370D01*
X14197974Y15802152D01*
X14211546Y15773400D01*
X14246380Y15699960D01*
X14277928Y15634251D01*
X14304479Y15579772D01*
X14324322Y15540021D01*
X14335746Y15518498D01*
X14337488Y15515864D01*
X14350486Y15518668D01*
X14382130Y15530747D01*
X14428267Y15550176D01*
X14484746Y15575033D01*
X14547413Y15603395D01*
X14612115Y15633337D01*
X14674701Y15662937D01*
X14731017Y15690272D01*
X14776912Y15713417D01*
X14808232Y15730451D01*
X14820825Y15739448D01*
X14820900Y15739764D01*
X14815694Y15752427D01*
X14801111Y15784675D01*
X14778701Y15833162D01*
X14750016Y15894543D01*
X14716606Y15965474D01*
X14699320Y16001987D01*
X14664434Y16076012D01*
X14633823Y16141843D01*
X14608976Y16196203D01*
X14591384Y16235818D01*
X14582535Y16257409D01*
X14581845Y16260417D01*
X14594296Y16266471D01*
X14624443Y16281091D01*
X14667123Y16301774D01*
X14696621Y16316063D01*
X14807292Y16369665D01*
X14831630Y16316008D01*
X14831630Y16316008D01*
G37*
X14831630Y16316008D02*
X14841830Y16294092D01*
X14861806Y16251691D01*
X14890400Y16191248D01*
X14926452Y16115203D01*
X14968805Y16025997D01*
X15016300Y15926073D01*
X15067779Y15817871D01*
X15122082Y15703833D01*
X15130534Y15686094D01*
X15184214Y15573271D01*
X15234423Y15467431D01*
X15280128Y15370780D01*
X15320291Y15285521D01*
X15353878Y15213860D01*
X15379852Y15158001D01*
X15397178Y15120149D01*
X15404820Y15102510D01*
X15405100Y15101549D01*
X15394654Y15093080D01*
X15367310Y15077004D01*
X15329059Y15056360D01*
X15285888Y15034189D01*
X15243789Y15013532D01*
X15208751Y14997427D01*
X15186763Y14988916D01*
X15182436Y14988536D01*
X15176166Y15000623D01*
X15160684Y15032407D01*
X15137568Y15080589D01*
X15108399Y15141871D01*
X15074753Y15212955D01*
X15056010Y15252700D01*
X15020274Y15328103D01*
X14987735Y15395862D01*
X14960067Y15452560D01*
X14938947Y15494784D01*
X14926048Y15519117D01*
X14923201Y15523511D01*
X14909680Y15521125D01*
X14877537Y15509460D01*
X14830952Y15490429D01*
X14774104Y15465944D01*
X14711173Y15437918D01*
X14646339Y15408263D01*
X14583782Y15378892D01*
X14527681Y15351717D01*
X14482216Y15328652D01*
X14451566Y15311608D01*
X14439912Y15302499D01*
X14439900Y15302356D01*
X14445127Y15288983D01*
X14459796Y15255991D01*
X14482388Y15206678D01*
X14511386Y15144338D01*
X14545272Y15072267D01*
X14567878Y15024545D01*
X14603772Y14948464D01*
X14635427Y14880373D01*
X14661384Y14823493D01*
X14680183Y14781047D01*
X14690366Y14756257D01*
X14691703Y14751159D01*
X14679115Y14744477D01*
X14648658Y14729746D01*
X14605566Y14709473D01*
X14576280Y14695901D01*
X14465010Y14644608D01*
X14447534Y14685129D01*
X14438756Y14704289D01*
X14420138Y14744027D01*
X14392792Y14802001D01*
X14357827Y14875870D01*
X14316353Y14963293D01*
X14269480Y15061929D01*
X14218317Y15169437D01*
X14163975Y15283474D01*
X14149229Y15314395D01*
X14094898Y15428457D01*
X14044030Y15535562D01*
X13997648Y15633529D01*
X13956780Y15720178D01*
X13922449Y15793328D01*
X13895683Y15850797D01*
X13877505Y15890406D01*
X13868942Y15909973D01*
X13868400Y15911639D01*
X13878839Y15920159D01*
X13906166Y15936286D01*
X13944398Y15956977D01*
X13987548Y15979188D01*
X14029632Y15999875D01*
X14064665Y16015994D01*
X14086663Y16024500D01*
X14091006Y16024865D01*
X14097286Y16012766D01*
X14112745Y15981061D01*
X14135761Y15933134D01*
X14164711Y15872370D01*
X14197974Y15802152D01*
X14211546Y15773400D01*
X14246380Y15699960D01*
X14277928Y15634251D01*
X14304479Y15579772D01*
X14324322Y15540021D01*
X14335746Y15518498D01*
X14337488Y15515864D01*
X14350486Y15518668D01*
X14382130Y15530747D01*
X14428267Y15550176D01*
X14484746Y15575033D01*
X14547413Y15603395D01*
X14612115Y15633337D01*
X14674701Y15662937D01*
X14731017Y15690272D01*
X14776912Y15713417D01*
X14808232Y15730451D01*
X14820825Y15739448D01*
X14820900Y15739764D01*
X14815694Y15752427D01*
X14801111Y15784675D01*
X14778701Y15833162D01*
X14750016Y15894543D01*
X14716606Y15965474D01*
X14699320Y16001987D01*
X14664434Y16076012D01*
X14633823Y16141843D01*
X14608976Y16196203D01*
X14591384Y16235818D01*
X14582535Y16257409D01*
X14581845Y16260417D01*
X14594296Y16266471D01*
X14624443Y16281091D01*
X14667123Y16301774D01*
X14696621Y16316063D01*
X14807292Y16369665D01*
X14831630Y16316008D01*
G36*
X16016146Y16506944D02*
G01*
X16032659Y16473800D01*
X16057510Y16422886D01*
X16089474Y16356776D01*
X16127328Y16278047D01*
X16169849Y16189275D01*
X16215812Y16093037D01*
X16263995Y15991908D01*
X16313173Y15888465D01*
X16362122Y15785283D01*
X16409619Y15684939D01*
X16454441Y15590009D01*
X16495363Y15503069D01*
X16531162Y15426695D01*
X16560614Y15363463D01*
X16582496Y15315950D01*
X16595583Y15286731D01*
X16598900Y15278280D01*
X16588377Y15269381D01*
X16561056Y15253273D01*
X16523307Y15233154D01*
X16481502Y15212225D01*
X16442011Y15193685D01*
X16411204Y15180734D01*
X16396252Y15176500D01*
X16388043Y15187414D01*
X16371006Y15217744D01*
X16347020Y15263878D01*
X16317968Y15322200D01*
X16287176Y15386050D01*
X16255091Y15452637D01*
X16226357Y15510496D01*
X16202838Y15556014D01*
X16186400Y15585579D01*
X16179017Y15595600D01*
X16171527Y15584494D01*
X16164262Y15557196D01*
X16163268Y15551509D01*
X16140646Y15487211D01*
X16096087Y15426529D01*
X16033046Y15373647D01*
X15999783Y15353624D01*
X15911054Y15318436D01*
X15822469Y15308183D01*
X15735527Y15322930D01*
X15690850Y15340795D01*
X15623809Y15383144D01*
X15555037Y15444067D01*
X15489911Y15517753D01*
X15433807Y15598390D01*
X15406489Y15648144D01*
X15356516Y15768194D01*
X15326561Y15882184D01*
X15316470Y15988295D01*
X15320711Y16030793D01*
X15564551Y16030793D01*
X15567113Y15953706D01*
X15588143Y15864398D01*
X15626672Y15767050D01*
X15670544Y15687485D01*
X15721285Y15619822D01*
X15775625Y15567209D01*
X15830293Y15532793D01*
X15882020Y15519722D01*
X15883698Y15519690D01*
X15916393Y15524021D01*
X15947198Y15532946D01*
X16007075Y15568479D01*
X16051058Y15621759D01*
X16076671Y15688970D01*
X16082338Y15741321D01*
X16078174Y15788769D01*
X16063553Y15842433D01*
X16036615Y15909345D01*
X15998728Y15990307D01*
X15965023Y16051417D01*
X15932386Y16097154D01*
X15897697Y16131994D01*
X15864914Y16155973D01*
X15825847Y16178604D01*
X15792793Y16189056D01*
X15752808Y16190593D01*
X15732112Y16189452D01*
X15664236Y16174990D01*
X15613455Y16142810D01*
X15580112Y16094286D01*
X15564551Y16030793D01*
X15320711Y16030793D01*
X15326092Y16084702D01*
X15355273Y16169586D01*
X15403861Y16241123D01*
X15460270Y16290051D01*
X15543917Y16332977D01*
X15631397Y16350899D01*
X15721865Y16343781D01*
X15814481Y16311586D01*
X15825584Y16306094D01*
X15874355Y16281213D01*
X15840788Y16358611D01*
X15823292Y16401468D01*
X15816336Y16427268D01*
X15818942Y16441590D01*
X15825236Y16447348D01*
X15852534Y16461950D01*
X15890402Y16479125D01*
X15931932Y16496157D01*
X15970217Y16510326D01*
X15998353Y16518916D01*
X16009194Y16519739D01*
X16016146Y16506944D01*
X16016146Y16506944D01*
G37*
X16016146Y16506944D02*
X16032659Y16473800D01*
X16057510Y16422886D01*
X16089474Y16356776D01*
X16127328Y16278047D01*
X16169849Y16189275D01*
X16215812Y16093037D01*
X16263995Y15991908D01*
X16313173Y15888465D01*
X16362122Y15785283D01*
X16409619Y15684939D01*
X16454441Y15590009D01*
X16495363Y15503069D01*
X16531162Y15426695D01*
X16560614Y15363463D01*
X16582496Y15315950D01*
X16595583Y15286731D01*
X16598900Y15278280D01*
X16588377Y15269381D01*
X16561056Y15253273D01*
X16523307Y15233154D01*
X16481502Y15212225D01*
X16442011Y15193685D01*
X16411204Y15180734D01*
X16396252Y15176500D01*
X16388043Y15187414D01*
X16371006Y15217744D01*
X16347020Y15263878D01*
X16317968Y15322200D01*
X16287176Y15386050D01*
X16255091Y15452637D01*
X16226357Y15510496D01*
X16202838Y15556014D01*
X16186400Y15585579D01*
X16179017Y15595600D01*
X16171527Y15584494D01*
X16164262Y15557196D01*
X16163268Y15551509D01*
X16140646Y15487211D01*
X16096087Y15426529D01*
X16033046Y15373647D01*
X15999783Y15353624D01*
X15911054Y15318436D01*
X15822469Y15308183D01*
X15735527Y15322930D01*
X15690850Y15340795D01*
X15623809Y15383144D01*
X15555037Y15444067D01*
X15489911Y15517753D01*
X15433807Y15598390D01*
X15406489Y15648144D01*
X15356516Y15768194D01*
X15326561Y15882184D01*
X15316470Y15988295D01*
X15320711Y16030793D01*
X15564551Y16030793D01*
X15567113Y15953706D01*
X15588143Y15864398D01*
X15626672Y15767050D01*
X15670544Y15687485D01*
X15721285Y15619822D01*
X15775625Y15567209D01*
X15830293Y15532793D01*
X15882020Y15519722D01*
X15883698Y15519690D01*
X15916393Y15524021D01*
X15947198Y15532946D01*
X16007075Y15568479D01*
X16051058Y15621759D01*
X16076671Y15688970D01*
X16082338Y15741321D01*
X16078174Y15788769D01*
X16063553Y15842433D01*
X16036615Y15909345D01*
X15998728Y15990307D01*
X15965023Y16051417D01*
X15932386Y16097154D01*
X15897697Y16131994D01*
X15864914Y16155973D01*
X15825847Y16178604D01*
X15792793Y16189056D01*
X15752808Y16190593D01*
X15732112Y16189452D01*
X15664236Y16174990D01*
X15613455Y16142810D01*
X15580112Y16094286D01*
X15564551Y16030793D01*
X15320711Y16030793D01*
X15326092Y16084702D01*
X15355273Y16169586D01*
X15403861Y16241123D01*
X15460270Y16290051D01*
X15543917Y16332977D01*
X15631397Y16350899D01*
X15721865Y16343781D01*
X15814481Y16311586D01*
X15825584Y16306094D01*
X15874355Y16281213D01*
X15840788Y16358611D01*
X15823292Y16401468D01*
X15816336Y16427268D01*
X15818942Y16441590D01*
X15825236Y16447348D01*
X15852534Y16461950D01*
X15890402Y16479125D01*
X15931932Y16496157D01*
X15970217Y16510326D01*
X15998353Y16518916D01*
X16009194Y16519739D01*
X16016146Y16506944D01*
G36*
X16995348Y16918081D02*
G01*
X17027836Y16909724D01*
X17067250Y16893359D01*
X17108748Y16868934D01*
X17146040Y16841136D01*
X17172832Y16814653D01*
X17182835Y16794251D01*
X17172817Y16782391D01*
X17146564Y16761248D01*
X17109369Y16735018D01*
X17102069Y16730178D01*
X17021567Y16677306D01*
X16988858Y16710015D01*
X16959694Y16731909D01*
X16921716Y16744041D01*
X16885177Y16748610D01*
X16842238Y16750129D01*
X16806179Y16744794D01*
X16766258Y16730193D01*
X16732737Y16714388D01*
X16660346Y16671053D01*
X16612760Y16623749D01*
X16589514Y16571062D01*
X16590142Y16511581D01*
X16614178Y16443894D01*
X16632480Y16410427D01*
X16644361Y16413284D01*
X16673868Y16424620D01*
X16715554Y16442287D01*
X16734457Y16450661D01*
X16873565Y16506047D01*
X16997991Y16540846D01*
X17107926Y16555059D01*
X17203557Y16548692D01*
X17285074Y16521749D01*
X17352665Y16474233D01*
X17363326Y16463539D01*
X17413382Y16393107D01*
X17442021Y16312991D01*
X17448524Y16228235D01*
X17432170Y16143879D01*
X17414875Y16102790D01*
X17366930Y16033886D01*
X17302068Y15977414D01*
X17225425Y15935285D01*
X17142135Y15909412D01*
X17057335Y15901707D01*
X16976160Y15914080D01*
X16942028Y15926778D01*
X16903266Y15946410D01*
X16871505Y15965992D01*
X16862653Y15972917D01*
X16847793Y15984239D01*
X16841779Y15981217D01*
X16844462Y15960864D01*
X16855690Y15920190D01*
X16859387Y15907907D01*
X16873898Y15855314D01*
X16877117Y15819871D01*
X16866291Y15794810D01*
X16838670Y15773361D01*
X16795509Y15750726D01*
X16752547Y15730612D01*
X16717264Y15716033D01*
X16696833Y15709934D01*
X16696090Y15709900D01*
X16683640Y15721439D01*
X16670747Y15751889D01*
X16664412Y15775101D01*
X16654869Y15804398D01*
X16635915Y15852629D01*
X16609233Y15915881D01*
X16576506Y15990237D01*
X16539417Y16071784D01*
X16507440Y16140195D01*
X16458261Y16245284D01*
X16437097Y16292437D01*
X16688274Y16292437D01*
X16724936Y16220244D01*
X16775489Y16142219D01*
X16836000Y16085326D01*
X16904228Y16050528D01*
X16977931Y16038788D01*
X17054869Y16051071D01*
X17088375Y16063972D01*
X17130797Y16089702D01*
X17169634Y16123272D01*
X17175466Y16129791D01*
X17197513Y16160018D01*
X17206486Y16188258D01*
X17205941Y16226987D01*
X17205267Y16234378D01*
X17195861Y16282618D01*
X17174878Y16319352D01*
X17159175Y16336555D01*
X17138640Y16355851D01*
X17119783Y16367655D01*
X17095741Y16373763D01*
X17059657Y16375973D01*
X17008199Y16376099D01*
X16946005Y16374233D01*
X16896461Y16367777D01*
X16847454Y16354363D01*
X16792812Y16333993D01*
X16688274Y16292437D01*
X16437097Y16292437D01*
X16419839Y16330884D01*
X16391340Y16400109D01*
X16371929Y16456069D01*
X16360771Y16501878D01*
X16357033Y16540648D01*
X16359879Y16575491D01*
X16368476Y16609520D01*
X16375965Y16630625D01*
X16410015Y16689075D01*
X16465957Y16747293D01*
X16540429Y16802288D01*
X16616057Y16844396D01*
X16724947Y16891169D01*
X16821903Y16918635D01*
X16910759Y16927403D01*
X16995348Y16918081D01*
X16995348Y16918081D01*
G37*
X16995348Y16918081D02*
X17027836Y16909724D01*
X17067250Y16893359D01*
X17108748Y16868934D01*
X17146040Y16841136D01*
X17172832Y16814653D01*
X17182835Y16794251D01*
X17172817Y16782391D01*
X17146564Y16761248D01*
X17109369Y16735018D01*
X17102069Y16730178D01*
X17021567Y16677306D01*
X16988858Y16710015D01*
X16959694Y16731909D01*
X16921716Y16744041D01*
X16885177Y16748610D01*
X16842238Y16750129D01*
X16806179Y16744794D01*
X16766258Y16730193D01*
X16732737Y16714388D01*
X16660346Y16671053D01*
X16612760Y16623749D01*
X16589514Y16571062D01*
X16590142Y16511581D01*
X16614178Y16443894D01*
X16632480Y16410427D01*
X16644361Y16413284D01*
X16673868Y16424620D01*
X16715554Y16442287D01*
X16734457Y16450661D01*
X16873565Y16506047D01*
X16997991Y16540846D01*
X17107926Y16555059D01*
X17203557Y16548692D01*
X17285074Y16521749D01*
X17352665Y16474233D01*
X17363326Y16463539D01*
X17413382Y16393107D01*
X17442021Y16312991D01*
X17448524Y16228235D01*
X17432170Y16143879D01*
X17414875Y16102790D01*
X17366930Y16033886D01*
X17302068Y15977414D01*
X17225425Y15935285D01*
X17142135Y15909412D01*
X17057335Y15901707D01*
X16976160Y15914080D01*
X16942028Y15926778D01*
X16903266Y15946410D01*
X16871505Y15965992D01*
X16862653Y15972917D01*
X16847793Y15984239D01*
X16841779Y15981217D01*
X16844462Y15960864D01*
X16855690Y15920190D01*
X16859387Y15907907D01*
X16873898Y15855314D01*
X16877117Y15819871D01*
X16866291Y15794810D01*
X16838670Y15773361D01*
X16795509Y15750726D01*
X16752547Y15730612D01*
X16717264Y15716033D01*
X16696833Y15709934D01*
X16696090Y15709900D01*
X16683640Y15721439D01*
X16670747Y15751889D01*
X16664412Y15775101D01*
X16654869Y15804398D01*
X16635915Y15852629D01*
X16609233Y15915881D01*
X16576506Y15990237D01*
X16539417Y16071784D01*
X16507440Y16140195D01*
X16458261Y16245284D01*
X16437097Y16292437D01*
X16688274Y16292437D01*
X16724936Y16220244D01*
X16775489Y16142219D01*
X16836000Y16085326D01*
X16904228Y16050528D01*
X16977931Y16038788D01*
X17054869Y16051071D01*
X17088375Y16063972D01*
X17130797Y16089702D01*
X17169634Y16123272D01*
X17175466Y16129791D01*
X17197513Y16160018D01*
X17206486Y16188258D01*
X17205941Y16226987D01*
X17205267Y16234378D01*
X17195861Y16282618D01*
X17174878Y16319352D01*
X17159175Y16336555D01*
X17138640Y16355851D01*
X17119783Y16367655D01*
X17095741Y16373763D01*
X17059657Y16375973D01*
X17008199Y16376099D01*
X16946005Y16374233D01*
X16896461Y16367777D01*
X16847454Y16354363D01*
X16792812Y16333993D01*
X16688274Y16292437D01*
X16437097Y16292437D01*
X16419839Y16330884D01*
X16391340Y16400109D01*
X16371929Y16456069D01*
X16360771Y16501878D01*
X16357033Y16540648D01*
X16359879Y16575491D01*
X16368476Y16609520D01*
X16375965Y16630625D01*
X16410015Y16689075D01*
X16465957Y16747293D01*
X16540429Y16802288D01*
X16616057Y16844396D01*
X16724947Y16891169D01*
X16821903Y16918635D01*
X16910759Y16927403D01*
X16995348Y16918081D01*
G36*
X17685978Y17300309D02*
G01*
X17702849Y17266616D01*
X17727586Y17216002D01*
X17758745Y17151513D01*
X17794884Y17076195D01*
X17834559Y16993094D01*
X17876327Y16905255D01*
X17918746Y16815724D01*
X17960372Y16727547D01*
X17999763Y16643770D01*
X18035475Y16567439D01*
X18066066Y16501598D01*
X18090092Y16449295D01*
X18106111Y16413575D01*
X18112680Y16397483D01*
X18112721Y16397313D01*
X18103361Y16382943D01*
X18072081Y16361895D01*
X18021036Y16335585D01*
X18013618Y16332111D01*
X17910686Y16284346D01*
X17791368Y16533326D01*
X17749658Y16619462D01*
X17716110Y16686181D01*
X17688495Y16737244D01*
X17664585Y16776410D01*
X17642151Y16807442D01*
X17618966Y16834099D01*
X17604370Y16848966D01*
X17549154Y16896528D01*
X17503208Y16921171D01*
X17492452Y16923926D01*
X17440700Y16927464D01*
X17378937Y16922974D01*
X17320861Y16911539D01*
X17315313Y16909912D01*
X17301657Y16908729D01*
X17288727Y16916905D01*
X17273544Y16938271D01*
X17253128Y16976653D01*
X17235938Y17011922D01*
X17213292Y17059494D01*
X17195499Y17097591D01*
X17184953Y17121046D01*
X17183100Y17125928D01*
X17194251Y17134012D01*
X17221977Y17143341D01*
X17257688Y17151720D01*
X17292793Y17156952D01*
X17307346Y17157700D01*
X17386143Y17146573D01*
X17464101Y17112376D01*
X17512133Y17080035D01*
X17545185Y17055859D01*
X17568494Y17040416D01*
X17576800Y17037035D01*
X17571546Y17050375D01*
X17557555Y17080717D01*
X17537481Y17122361D01*
X17529786Y17137993D01*
X17508984Y17181732D01*
X17494363Y17215807D01*
X17488221Y17234722D01*
X17488511Y17236751D01*
X17517496Y17252989D01*
X17556467Y17271483D01*
X17598745Y17289516D01*
X17637652Y17304369D01*
X17666506Y17313323D01*
X17678415Y17314035D01*
X17685978Y17300309D01*
X17685978Y17300309D01*
G37*
X17685978Y17300309D02*
X17702849Y17266616D01*
X17727586Y17216002D01*
X17758745Y17151513D01*
X17794884Y17076195D01*
X17834559Y16993094D01*
X17876327Y16905255D01*
X17918746Y16815724D01*
X17960372Y16727547D01*
X17999763Y16643770D01*
X18035475Y16567439D01*
X18066066Y16501598D01*
X18090092Y16449295D01*
X18106111Y16413575D01*
X18112680Y16397483D01*
X18112721Y16397313D01*
X18103361Y16382943D01*
X18072081Y16361895D01*
X18021036Y16335585D01*
X18013618Y16332111D01*
X17910686Y16284346D01*
X17791368Y16533326D01*
X17749658Y16619462D01*
X17716110Y16686181D01*
X17688495Y16737244D01*
X17664585Y16776410D01*
X17642151Y16807442D01*
X17618966Y16834099D01*
X17604370Y16848966D01*
X17549154Y16896528D01*
X17503208Y16921171D01*
X17492452Y16923926D01*
X17440700Y16927464D01*
X17378937Y16922974D01*
X17320861Y16911539D01*
X17315313Y16909912D01*
X17301657Y16908729D01*
X17288727Y16916905D01*
X17273544Y16938271D01*
X17253128Y16976653D01*
X17235938Y17011922D01*
X17213292Y17059494D01*
X17195499Y17097591D01*
X17184953Y17121046D01*
X17183100Y17125928D01*
X17194251Y17134012D01*
X17221977Y17143341D01*
X17257688Y17151720D01*
X17292793Y17156952D01*
X17307346Y17157700D01*
X17386143Y17146573D01*
X17464101Y17112376D01*
X17512133Y17080035D01*
X17545185Y17055859D01*
X17568494Y17040416D01*
X17576800Y17037035D01*
X17571546Y17050375D01*
X17557555Y17080717D01*
X17537481Y17122361D01*
X17529786Y17137993D01*
X17508984Y17181732D01*
X17494363Y17215807D01*
X17488221Y17234722D01*
X17488511Y17236751D01*
X17517496Y17252989D01*
X17556467Y17271483D01*
X17598745Y17289516D01*
X17637652Y17304369D01*
X17666506Y17313323D01*
X17678415Y17314035D01*
X17685978Y17300309D01*
G36*
X18572313Y18137879D02*
G01*
X18589873Y18110928D01*
X18610586Y18074315D01*
X18630861Y18034808D01*
X18647108Y17999179D01*
X18655734Y17974195D01*
X18656300Y17969698D01*
X18645444Y17959876D01*
X18615602Y17941705D01*
X18570857Y17917463D01*
X18515295Y17889423D01*
X18491397Y17877864D01*
X18326494Y17799050D01*
X18580297Y17267024D01*
X18631869Y17158750D01*
X18679921Y17057545D01*
X18723375Y16965703D01*
X18761153Y16885517D01*
X18792175Y16819282D01*
X18815365Y16769292D01*
X18829643Y16737841D01*
X18833983Y16727274D01*
X18823342Y16719758D01*
X18795305Y16704486D01*
X18755571Y16684265D01*
X18709843Y16661902D01*
X18663822Y16640204D01*
X18623210Y16621980D01*
X18603218Y16613644D01*
X18594643Y16623188D01*
X18577187Y16652321D01*
X18552700Y16697612D01*
X18523030Y16755628D01*
X18490029Y16822938D01*
X18486858Y16829544D01*
X18450227Y16906185D01*
X18405952Y16999116D01*
X18357209Y17101650D01*
X18307178Y17207097D01*
X18259036Y17308770D01*
X18237399Y17354550D01*
X18198651Y17436261D01*
X18163146Y17510508D01*
X18132404Y17574159D01*
X18107948Y17624081D01*
X18091299Y17657143D01*
X18084077Y17670110D01*
X18069890Y17668795D01*
X18037333Y17657822D01*
X17990757Y17638884D01*
X17934514Y17613674D01*
X17913176Y17603600D01*
X17854584Y17576178D01*
X17804275Y17553778D01*
X17766586Y17538243D01*
X17745850Y17531415D01*
X17743403Y17531421D01*
X17733674Y17544869D01*
X17717757Y17573888D01*
X17698782Y17611855D01*
X17679880Y17652148D01*
X17664183Y17688145D01*
X17654820Y17713226D01*
X17653831Y17720882D01*
X17667495Y17728354D01*
X17700993Y17745020D01*
X17751291Y17769452D01*
X17815355Y17800221D01*
X17890153Y17835899D01*
X17972651Y17875057D01*
X18059817Y17916266D01*
X18148616Y17958098D01*
X18236016Y17999124D01*
X18318983Y18037915D01*
X18394485Y18073043D01*
X18459488Y18103079D01*
X18510959Y18126594D01*
X18545865Y18142161D01*
X18561172Y18148349D01*
X18561499Y18148397D01*
X18572313Y18137879D01*
X18572313Y18137879D01*
G37*
X18572313Y18137879D02*
X18589873Y18110928D01*
X18610586Y18074315D01*
X18630861Y18034808D01*
X18647108Y17999179D01*
X18655734Y17974195D01*
X18656300Y17969698D01*
X18645444Y17959876D01*
X18615602Y17941705D01*
X18570857Y17917463D01*
X18515295Y17889423D01*
X18491397Y17877864D01*
X18326494Y17799050D01*
X18580297Y17267024D01*
X18631869Y17158750D01*
X18679921Y17057545D01*
X18723375Y16965703D01*
X18761153Y16885517D01*
X18792175Y16819282D01*
X18815365Y16769292D01*
X18829643Y16737841D01*
X18833983Y16727274D01*
X18823342Y16719758D01*
X18795305Y16704486D01*
X18755571Y16684265D01*
X18709843Y16661902D01*
X18663822Y16640204D01*
X18623210Y16621980D01*
X18603218Y16613644D01*
X18594643Y16623188D01*
X18577187Y16652321D01*
X18552700Y16697612D01*
X18523030Y16755628D01*
X18490029Y16822938D01*
X18486858Y16829544D01*
X18450227Y16906185D01*
X18405952Y16999116D01*
X18357209Y17101650D01*
X18307178Y17207097D01*
X18259036Y17308770D01*
X18237399Y17354550D01*
X18198651Y17436261D01*
X18163146Y17510508D01*
X18132404Y17574159D01*
X18107948Y17624081D01*
X18091299Y17657143D01*
X18084077Y17670110D01*
X18069890Y17668795D01*
X18037333Y17657822D01*
X17990757Y17638884D01*
X17934514Y17613674D01*
X17913176Y17603600D01*
X17854584Y17576178D01*
X17804275Y17553778D01*
X17766586Y17538243D01*
X17745850Y17531415D01*
X17743403Y17531421D01*
X17733674Y17544869D01*
X17717757Y17573888D01*
X17698782Y17611855D01*
X17679880Y17652148D01*
X17664183Y17688145D01*
X17654820Y17713226D01*
X17653831Y17720882D01*
X17667495Y17728354D01*
X17700993Y17745020D01*
X17751291Y17769452D01*
X17815355Y17800221D01*
X17890153Y17835899D01*
X17972651Y17875057D01*
X18059817Y17916266D01*
X18148616Y17958098D01*
X18236016Y17999124D01*
X18318983Y18037915D01*
X18394485Y18073043D01*
X18459488Y18103079D01*
X18510959Y18126594D01*
X18545865Y18142161D01*
X18561172Y18148349D01*
X18561499Y18148397D01*
X18572313Y18137879D01*
G36*
X19572570Y18628160D02*
G01*
X19579418Y18616575D01*
X19595939Y18584579D01*
X19620912Y18534707D01*
X19653118Y18469494D01*
X19691338Y18391475D01*
X19734350Y18303186D01*
X19780935Y18207160D01*
X19829874Y18105934D01*
X19879946Y18002042D01*
X19929931Y17898019D01*
X19978610Y17796400D01*
X20024761Y17699720D01*
X20067167Y17610515D01*
X20104606Y17531318D01*
X20135859Y17464665D01*
X20159705Y17413092D01*
X20174925Y17379132D01*
X20180299Y17365322D01*
X20180300Y17365311D01*
X20169728Y17358452D01*
X20142067Y17344072D01*
X20103400Y17325052D01*
X20059810Y17304276D01*
X20017380Y17284625D01*
X19982191Y17268982D01*
X19960328Y17260229D01*
X19956586Y17259300D01*
X19949604Y17270142D01*
X19933840Y17300031D01*
X19911292Y17345018D01*
X19883957Y17401151D01*
X19868282Y17433925D01*
X19836022Y17502053D01*
X19804689Y17568710D01*
X19777302Y17627437D01*
X19756885Y17671772D01*
X19752326Y17681843D01*
X19740069Y17709978D01*
X19729756Y17730018D01*
X19717831Y17741644D01*
X19700738Y17744536D01*
X19674923Y17738375D01*
X19636830Y17722843D01*
X19582903Y17697621D01*
X19509586Y17662388D01*
X19503606Y17659525D01*
X19423138Y17622971D01*
X19349600Y17593291D01*
X19288564Y17572621D01*
X19255935Y17564597D01*
X19153257Y17558074D01*
X19055817Y17575274D01*
X18966648Y17614615D01*
X18888782Y17674516D01*
X18825251Y17753394D01*
X18797879Y17803521D01*
X18773720Y17877407D01*
X18762842Y17961695D01*
X18764788Y18026593D01*
X19019297Y18026593D01*
X19023773Y17960817D01*
X19051046Y17896475D01*
X19071929Y17867795D01*
X19109874Y17830129D01*
X19150644Y17806595D01*
X19197475Y17797293D01*
X19253602Y17802324D01*
X19322260Y17821788D01*
X19406684Y17855786D01*
X19459146Y17879836D01*
X19620642Y17956115D01*
X19531082Y18144283D01*
X19500987Y18207342D01*
X19474865Y18261752D01*
X19454586Y18303646D01*
X19442018Y18329156D01*
X19438812Y18335190D01*
X19425442Y18332428D01*
X19394681Y18319427D01*
X19351146Y18298625D01*
X19299456Y18272462D01*
X19244229Y18243377D01*
X19190083Y18213809D01*
X19141637Y18186197D01*
X19103509Y18162980D01*
X19080316Y18146597D01*
X19078329Y18144802D01*
X19037516Y18089393D01*
X19019297Y18026593D01*
X18764788Y18026593D01*
X18765402Y18047065D01*
X18781561Y18124196D01*
X18791933Y18150794D01*
X18812216Y18190381D01*
X18835870Y18225684D01*
X18865576Y18258636D01*
X18904014Y18291168D01*
X18953865Y18325212D01*
X19017807Y18362698D01*
X19098522Y18405559D01*
X19198689Y18455725D01*
X19249584Y18480595D01*
X19331884Y18520269D01*
X19406867Y18555778D01*
X19471470Y18585725D01*
X19522632Y18608711D01*
X19557290Y18623335D01*
X19572382Y18628199D01*
X19572570Y18628160D01*
X19572570Y18628160D01*
G37*
X19572570Y18628160D02*
X19579418Y18616575D01*
X19595939Y18584579D01*
X19620912Y18534707D01*
X19653118Y18469494D01*
X19691338Y18391475D01*
X19734350Y18303186D01*
X19780935Y18207160D01*
X19829874Y18105934D01*
X19879946Y18002042D01*
X19929931Y17898019D01*
X19978610Y17796400D01*
X20024761Y17699720D01*
X20067167Y17610515D01*
X20104606Y17531318D01*
X20135859Y17464665D01*
X20159705Y17413092D01*
X20174925Y17379132D01*
X20180299Y17365322D01*
X20180300Y17365311D01*
X20169728Y17358452D01*
X20142067Y17344072D01*
X20103400Y17325052D01*
X20059810Y17304276D01*
X20017380Y17284625D01*
X19982191Y17268982D01*
X19960328Y17260229D01*
X19956586Y17259300D01*
X19949604Y17270142D01*
X19933840Y17300031D01*
X19911292Y17345018D01*
X19883957Y17401151D01*
X19868282Y17433925D01*
X19836022Y17502053D01*
X19804689Y17568710D01*
X19777302Y17627437D01*
X19756885Y17671772D01*
X19752326Y17681843D01*
X19740069Y17709978D01*
X19729756Y17730018D01*
X19717831Y17741644D01*
X19700738Y17744536D01*
X19674923Y17738375D01*
X19636830Y17722843D01*
X19582903Y17697621D01*
X19509586Y17662388D01*
X19503606Y17659525D01*
X19423138Y17622971D01*
X19349600Y17593291D01*
X19288564Y17572621D01*
X19255935Y17564597D01*
X19153257Y17558074D01*
X19055817Y17575274D01*
X18966648Y17614615D01*
X18888782Y17674516D01*
X18825251Y17753394D01*
X18797879Y17803521D01*
X18773720Y17877407D01*
X18762842Y17961695D01*
X18764788Y18026593D01*
X19019297Y18026593D01*
X19023773Y17960817D01*
X19051046Y17896475D01*
X19071929Y17867795D01*
X19109874Y17830129D01*
X19150644Y17806595D01*
X19197475Y17797293D01*
X19253602Y17802324D01*
X19322260Y17821788D01*
X19406684Y17855786D01*
X19459146Y17879836D01*
X19620642Y17956115D01*
X19531082Y18144283D01*
X19500987Y18207342D01*
X19474865Y18261752D01*
X19454586Y18303646D01*
X19442018Y18329156D01*
X19438812Y18335190D01*
X19425442Y18332428D01*
X19394681Y18319427D01*
X19351146Y18298625D01*
X19299456Y18272462D01*
X19244229Y18243377D01*
X19190083Y18213809D01*
X19141637Y18186197D01*
X19103509Y18162980D01*
X19080316Y18146597D01*
X19078329Y18144802D01*
X19037516Y18089393D01*
X19019297Y18026593D01*
X18764788Y18026593D01*
X18765402Y18047065D01*
X18781561Y18124196D01*
X18791933Y18150794D01*
X18812216Y18190381D01*
X18835870Y18225684D01*
X18865576Y18258636D01*
X18904014Y18291168D01*
X18953865Y18325212D01*
X19017807Y18362698D01*
X19098522Y18405559D01*
X19198689Y18455725D01*
X19249584Y18480595D01*
X19331884Y18520269D01*
X19406867Y18555778D01*
X19471470Y18585725D01*
X19522632Y18608711D01*
X19557290Y18623335D01*
X19572382Y18628199D01*
X19572570Y18628160D01*
G36*
X21176083Y19224089D02*
G01*
X21196461Y19181023D01*
X21226148Y19118403D01*
X21263537Y19039609D01*
X21307024Y18948023D01*
X21355004Y18847024D01*
X21405869Y18739995D01*
X21458016Y18630316D01*
X21473802Y18597124D01*
X21522879Y18493623D01*
X21568387Y18397041D01*
X21609194Y18309824D01*
X21644168Y18234422D01*
X21672176Y18173281D01*
X21692087Y18128850D01*
X21702768Y18103577D01*
X21704300Y18098776D01*
X21693614Y18087609D01*
X21666274Y18070752D01*
X21629354Y18051574D01*
X21589929Y18033446D01*
X21555073Y18019737D01*
X21531861Y18013818D01*
X21527295Y18014459D01*
X21520177Y18026726D01*
X21503331Y18059674D01*
X21477869Y18111015D01*
X21444905Y18178460D01*
X21405552Y18259722D01*
X21360924Y18352512D01*
X21312133Y18454541D01*
X21265213Y18553157D01*
X21213926Y18660703D01*
X21165966Y18760314D01*
X21122409Y18849819D01*
X21084334Y18927050D01*
X21052818Y18989839D01*
X21028937Y19036016D01*
X21013770Y19063411D01*
X21008421Y19070102D01*
X21009362Y19054626D01*
X21013500Y19016505D01*
X21020512Y18958252D01*
X21030078Y18882376D01*
X21041876Y18791390D01*
X21055583Y18687804D01*
X21070878Y18574129D01*
X21087440Y18452877D01*
X21088243Y18447042D01*
X21104821Y18326036D01*
X21120158Y18212938D01*
X21133934Y18110190D01*
X21145830Y18020233D01*
X21155526Y17945508D01*
X21162702Y17888457D01*
X21167037Y17851520D01*
X21168213Y17837138D01*
X21168171Y17837042D01*
X21154697Y17829242D01*
X21127773Y17815342D01*
X21096111Y17799647D01*
X21068417Y17786465D01*
X21053403Y17780102D01*
X21052828Y17780000D01*
X21043501Y17789013D01*
X21018555Y17814873D01*
X20979655Y17855813D01*
X20928462Y17910065D01*
X20866640Y17975862D01*
X20795852Y18051437D01*
X20717762Y18135021D01*
X20634033Y18224849D01*
X20617483Y18242628D01*
X20532942Y18333333D01*
X20453770Y18418025D01*
X20381622Y18494950D01*
X20318151Y18562358D01*
X20265012Y18618497D01*
X20223860Y18661614D01*
X20196348Y18689958D01*
X20184132Y18701777D01*
X20183671Y18702006D01*
X20188302Y18690251D01*
X20202835Y18657819D01*
X20226223Y18606953D01*
X20257419Y18539894D01*
X20295375Y18458886D01*
X20339045Y18366169D01*
X20387381Y18263986D01*
X20439337Y18154580D01*
X20439777Y18153654D01*
X20699132Y17608550D01*
X20583926Y17554575D01*
X20535252Y17531890D01*
X20496176Y17513904D01*
X20471710Y17502911D01*
X20465989Y17500600D01*
X20460178Y17511724D01*
X20444463Y17543705D01*
X20419847Y17594461D01*
X20387330Y17661910D01*
X20347912Y17743969D01*
X20302596Y17838555D01*
X20252382Y17943587D01*
X20198271Y18056982D01*
X20166203Y18124275D01*
X20110199Y18241903D01*
X20057484Y18352711D01*
X20009068Y18454567D01*
X19965966Y18545336D01*
X19929188Y18622887D01*
X19899745Y18685086D01*
X19878651Y18729801D01*
X19866916Y18754899D01*
X19864817Y18759573D01*
X19874219Y18768093D01*
X19901941Y18784908D01*
X19943253Y18807641D01*
X19993428Y18833915D01*
X20047735Y18861352D01*
X20101445Y18887574D01*
X20149830Y18910206D01*
X20188160Y18926870D01*
X20211706Y18935188D01*
X20215201Y18935700D01*
X20226478Y18926732D01*
X20253007Y18901207D01*
X20292774Y18861198D01*
X20343764Y18808776D01*
X20403962Y18746013D01*
X20471352Y18674979D01*
X20543478Y18598220D01*
X20615546Y18521602D01*
X20682050Y18451735D01*
X20741049Y18390595D01*
X20790600Y18340158D01*
X20828762Y18302400D01*
X20853593Y18279296D01*
X20863153Y18272823D01*
X20863174Y18272873D01*
X20862522Y18287858D01*
X20858876Y18325113D01*
X20852578Y18381727D01*
X20843971Y18454792D01*
X20833396Y18541396D01*
X20821197Y18638630D01*
X20808394Y18738355D01*
X20794998Y18842591D01*
X20782907Y18938606D01*
X20772461Y19023557D01*
X20763998Y19094601D01*
X20757857Y19148895D01*
X20754377Y19183594D01*
X20753859Y19195838D01*
X20766231Y19202435D01*
X20797508Y19217897D01*
X20843626Y19240246D01*
X20900521Y19267507D01*
X20933506Y19283200D01*
X21108862Y19366428D01*
X21176083Y19224089D01*
X21176083Y19224089D01*
G37*
X21176083Y19224089D02*
X21196461Y19181023D01*
X21226148Y19118403D01*
X21263537Y19039609D01*
X21307024Y18948023D01*
X21355004Y18847024D01*
X21405869Y18739995D01*
X21458016Y18630316D01*
X21473802Y18597124D01*
X21522879Y18493623D01*
X21568387Y18397041D01*
X21609194Y18309824D01*
X21644168Y18234422D01*
X21672176Y18173281D01*
X21692087Y18128850D01*
X21702768Y18103577D01*
X21704300Y18098776D01*
X21693614Y18087609D01*
X21666274Y18070752D01*
X21629354Y18051574D01*
X21589929Y18033446D01*
X21555073Y18019737D01*
X21531861Y18013818D01*
X21527295Y18014459D01*
X21520177Y18026726D01*
X21503331Y18059674D01*
X21477869Y18111015D01*
X21444905Y18178460D01*
X21405552Y18259722D01*
X21360924Y18352512D01*
X21312133Y18454541D01*
X21265213Y18553157D01*
X21213926Y18660703D01*
X21165966Y18760314D01*
X21122409Y18849819D01*
X21084334Y18927050D01*
X21052818Y18989839D01*
X21028937Y19036016D01*
X21013770Y19063411D01*
X21008421Y19070102D01*
X21009362Y19054626D01*
X21013500Y19016505D01*
X21020512Y18958252D01*
X21030078Y18882376D01*
X21041876Y18791390D01*
X21055583Y18687804D01*
X21070878Y18574129D01*
X21087440Y18452877D01*
X21088243Y18447042D01*
X21104821Y18326036D01*
X21120158Y18212938D01*
X21133934Y18110190D01*
X21145830Y18020233D01*
X21155526Y17945508D01*
X21162702Y17888457D01*
X21167037Y17851520D01*
X21168213Y17837138D01*
X21168171Y17837042D01*
X21154697Y17829242D01*
X21127773Y17815342D01*
X21096111Y17799647D01*
X21068417Y17786465D01*
X21053403Y17780102D01*
X21052828Y17780000D01*
X21043501Y17789013D01*
X21018555Y17814873D01*
X20979655Y17855813D01*
X20928462Y17910065D01*
X20866640Y17975862D01*
X20795852Y18051437D01*
X20717762Y18135021D01*
X20634033Y18224849D01*
X20617483Y18242628D01*
X20532942Y18333333D01*
X20453770Y18418025D01*
X20381622Y18494950D01*
X20318151Y18562358D01*
X20265012Y18618497D01*
X20223860Y18661614D01*
X20196348Y18689958D01*
X20184132Y18701777D01*
X20183671Y18702006D01*
X20188302Y18690251D01*
X20202835Y18657819D01*
X20226223Y18606953D01*
X20257419Y18539894D01*
X20295375Y18458886D01*
X20339045Y18366169D01*
X20387381Y18263986D01*
X20439337Y18154580D01*
X20439777Y18153654D01*
X20699132Y17608550D01*
X20583926Y17554575D01*
X20535252Y17531890D01*
X20496176Y17513904D01*
X20471710Y17502911D01*
X20465989Y17500600D01*
X20460178Y17511724D01*
X20444463Y17543705D01*
X20419847Y17594461D01*
X20387330Y17661910D01*
X20347912Y17743969D01*
X20302596Y17838555D01*
X20252382Y17943587D01*
X20198271Y18056982D01*
X20166203Y18124275D01*
X20110199Y18241903D01*
X20057484Y18352711D01*
X20009068Y18454567D01*
X19965966Y18545336D01*
X19929188Y18622887D01*
X19899745Y18685086D01*
X19878651Y18729801D01*
X19866916Y18754899D01*
X19864817Y18759573D01*
X19874219Y18768093D01*
X19901941Y18784908D01*
X19943253Y18807641D01*
X19993428Y18833915D01*
X20047735Y18861352D01*
X20101445Y18887574D01*
X20149830Y18910206D01*
X20188160Y18926870D01*
X20211706Y18935188D01*
X20215201Y18935700D01*
X20226478Y18926732D01*
X20253007Y18901207D01*
X20292774Y18861198D01*
X20343764Y18808776D01*
X20403962Y18746013D01*
X20471352Y18674979D01*
X20543478Y18598220D01*
X20615546Y18521602D01*
X20682050Y18451735D01*
X20741049Y18390595D01*
X20790600Y18340158D01*
X20828762Y18302400D01*
X20853593Y18279296D01*
X20863153Y18272823D01*
X20863174Y18272873D01*
X20862522Y18287858D01*
X20858876Y18325113D01*
X20852578Y18381727D01*
X20843971Y18454792D01*
X20833396Y18541396D01*
X20821197Y18638630D01*
X20808394Y18738355D01*
X20794998Y18842591D01*
X20782907Y18938606D01*
X20772461Y19023557D01*
X20763998Y19094601D01*
X20757857Y19148895D01*
X20754377Y19183594D01*
X20753859Y19195838D01*
X20766231Y19202435D01*
X20797508Y19217897D01*
X20843626Y19240246D01*
X20900521Y19267507D01*
X20933506Y19283200D01*
X21108862Y19366428D01*
X21176083Y19224089D01*
G36*
X22353413Y19942478D02*
G01*
X22360706Y19929311D01*
X22377559Y19895817D01*
X22402750Y19844563D01*
X22435054Y19778121D01*
X22473247Y19699059D01*
X22516104Y19609949D01*
X22562403Y19513359D01*
X22610918Y19411861D01*
X22660427Y19308022D01*
X22709704Y19204414D01*
X22757526Y19103607D01*
X22802668Y19008169D01*
X22843907Y18920672D01*
X22880019Y18843685D01*
X22909779Y18779777D01*
X22931963Y18731519D01*
X22945348Y18701481D01*
X22948900Y18692259D01*
X22938365Y18682098D01*
X22910462Y18664436D01*
X22870744Y18642720D01*
X22861388Y18637950D01*
X22773876Y18593880D01*
X22553732Y19056151D01*
X22505842Y19156485D01*
X22461391Y19249174D01*
X22421546Y19331819D01*
X22387472Y19402020D01*
X22360336Y19457379D01*
X22341305Y19495496D01*
X22331545Y19513972D01*
X22330509Y19515344D01*
X22328775Y19502467D01*
X22325029Y19466815D01*
X22319510Y19410914D01*
X22312458Y19337287D01*
X22304113Y19248461D01*
X22294714Y19146960D01*
X22284501Y19035310D01*
X22275426Y18935058D01*
X22264566Y18816241D01*
X22254096Y18704981D01*
X22244283Y18603880D01*
X22235393Y18515537D01*
X22227693Y18442553D01*
X22221450Y18387530D01*
X22216928Y18353067D01*
X22214686Y18341961D01*
X22199920Y18329690D01*
X22167766Y18310241D01*
X22123952Y18286958D01*
X22101246Y18275778D01*
X21996543Y18225484D01*
X21979088Y18259917D01*
X21962336Y18293764D01*
X21937355Y18345321D01*
X21905358Y18412012D01*
X21867557Y18491259D01*
X21825166Y18580486D01*
X21779397Y18677115D01*
X21731462Y18778569D01*
X21682574Y18882270D01*
X21633945Y18985643D01*
X21586789Y19086109D01*
X21542318Y19181092D01*
X21501744Y19268015D01*
X21466280Y19344300D01*
X21437139Y19407370D01*
X21415534Y19454648D01*
X21402676Y19483558D01*
X21399500Y19491688D01*
X21409823Y19501624D01*
X21436245Y19518202D01*
X21471940Y19537903D01*
X21510083Y19557209D01*
X21543852Y19572600D01*
X21566420Y19580557D01*
X21571631Y19580446D01*
X21577618Y19568607D01*
X21593283Y19536337D01*
X21617421Y19486151D01*
X21648825Y19420569D01*
X21686292Y19342108D01*
X21728614Y19253286D01*
X21774588Y19156620D01*
X21782063Y19140887D01*
X21828364Y19043852D01*
X21871220Y18954874D01*
X21909436Y18876366D01*
X21941819Y18810746D01*
X21967175Y18760427D01*
X21984311Y18727827D01*
X21992032Y18715361D01*
X21992328Y18715437D01*
X21994118Y18730059D01*
X21997915Y18767195D01*
X22003455Y18824059D01*
X22010473Y18897866D01*
X22018705Y18985833D01*
X22027887Y19085173D01*
X22037755Y19193102D01*
X22040330Y19221450D01*
X22050560Y19333627D01*
X22060371Y19440073D01*
X22069461Y19537618D01*
X22077533Y19623090D01*
X22084285Y19693317D01*
X22089417Y19745128D01*
X22092631Y19775351D01*
X22092964Y19778111D01*
X22100668Y19839471D01*
X22222221Y19895888D01*
X22273037Y19918202D01*
X22315353Y19934405D01*
X22343988Y19942657D01*
X22353413Y19942478D01*
X22353413Y19942478D01*
G37*
X22353413Y19942478D02*
X22360706Y19929311D01*
X22377559Y19895817D01*
X22402750Y19844563D01*
X22435054Y19778121D01*
X22473247Y19699059D01*
X22516104Y19609949D01*
X22562403Y19513359D01*
X22610918Y19411861D01*
X22660427Y19308022D01*
X22709704Y19204414D01*
X22757526Y19103607D01*
X22802668Y19008169D01*
X22843907Y18920672D01*
X22880019Y18843685D01*
X22909779Y18779777D01*
X22931963Y18731519D01*
X22945348Y18701481D01*
X22948900Y18692259D01*
X22938365Y18682098D01*
X22910462Y18664436D01*
X22870744Y18642720D01*
X22861388Y18637950D01*
X22773876Y18593880D01*
X22553732Y19056151D01*
X22505842Y19156485D01*
X22461391Y19249174D01*
X22421546Y19331819D01*
X22387472Y19402020D01*
X22360336Y19457379D01*
X22341305Y19495496D01*
X22331545Y19513972D01*
X22330509Y19515344D01*
X22328775Y19502467D01*
X22325029Y19466815D01*
X22319510Y19410914D01*
X22312458Y19337287D01*
X22304113Y19248461D01*
X22294714Y19146960D01*
X22284501Y19035310D01*
X22275426Y18935058D01*
X22264566Y18816241D01*
X22254096Y18704981D01*
X22244283Y18603880D01*
X22235393Y18515537D01*
X22227693Y18442553D01*
X22221450Y18387530D01*
X22216928Y18353067D01*
X22214686Y18341961D01*
X22199920Y18329690D01*
X22167766Y18310241D01*
X22123952Y18286958D01*
X22101246Y18275778D01*
X21996543Y18225484D01*
X21979088Y18259917D01*
X21962336Y18293764D01*
X21937355Y18345321D01*
X21905358Y18412012D01*
X21867557Y18491259D01*
X21825166Y18580486D01*
X21779397Y18677115D01*
X21731462Y18778569D01*
X21682574Y18882270D01*
X21633945Y18985643D01*
X21586789Y19086109D01*
X21542318Y19181092D01*
X21501744Y19268015D01*
X21466280Y19344300D01*
X21437139Y19407370D01*
X21415534Y19454648D01*
X21402676Y19483558D01*
X21399500Y19491688D01*
X21409823Y19501624D01*
X21436245Y19518202D01*
X21471940Y19537903D01*
X21510083Y19557209D01*
X21543852Y19572600D01*
X21566420Y19580557D01*
X21571631Y19580446D01*
X21577618Y19568607D01*
X21593283Y19536337D01*
X21617421Y19486151D01*
X21648825Y19420569D01*
X21686292Y19342108D01*
X21728614Y19253286D01*
X21774588Y19156620D01*
X21782063Y19140887D01*
X21828364Y19043852D01*
X21871220Y18954874D01*
X21909436Y18876366D01*
X21941819Y18810746D01*
X21967175Y18760427D01*
X21984311Y18727827D01*
X21992032Y18715361D01*
X21992328Y18715437D01*
X21994118Y18730059D01*
X21997915Y18767195D01*
X22003455Y18824059D01*
X22010473Y18897866D01*
X22018705Y18985833D01*
X22027887Y19085173D01*
X22037755Y19193102D01*
X22040330Y19221450D01*
X22050560Y19333627D01*
X22060371Y19440073D01*
X22069461Y19537618D01*
X22077533Y19623090D01*
X22084285Y19693317D01*
X22089417Y19745128D01*
X22092631Y19775351D01*
X22092964Y19778111D01*
X22100668Y19839471D01*
X22222221Y19895888D01*
X22273037Y19918202D01*
X22315353Y19934405D01*
X22343988Y19942657D01*
X22353413Y19942478D01*
G36*
X23384562Y20371205D02*
G01*
X23477984Y20344149D01*
X23559552Y20297314D01*
X23626988Y20234062D01*
X23678017Y20157756D01*
X23710361Y20071758D01*
X23721745Y19979430D01*
X23711077Y19888939D01*
X23697064Y19846018D01*
X23674525Y19803400D01*
X23641023Y19758211D01*
X23594122Y19707579D01*
X23531383Y19648630D01*
X23450369Y19578493D01*
X23441107Y19570700D01*
X23369999Y19510184D01*
X23316529Y19462119D01*
X23278255Y19423397D01*
X23252736Y19390913D01*
X23237531Y19361560D01*
X23230199Y19332230D01*
X23228300Y19299853D01*
X23231480Y19258376D01*
X23244477Y19226660D01*
X23271774Y19192689D01*
X23295343Y19168253D01*
X23315511Y19154090D01*
X23340336Y19147400D01*
X23377874Y19145383D01*
X23408299Y19145250D01*
X23505570Y19155961D01*
X23595028Y19188985D01*
X23679911Y19245660D01*
X23705474Y19267938D01*
X23756583Y19323052D01*
X23786670Y19377640D01*
X23799041Y19438475D01*
X23799800Y19461284D01*
X23799800Y19517784D01*
X23912497Y19544242D01*
X23963192Y19555920D01*
X24004273Y19564963D01*
X24029648Y19570051D01*
X24034450Y19570700D01*
X24038172Y19559010D01*
X24040019Y19527872D01*
X24039731Y19483189D01*
X24039098Y19465925D01*
X24030802Y19385897D01*
X24011544Y19317921D01*
X23978121Y19255270D01*
X23927329Y19191221D01*
X23889268Y19151400D01*
X23799274Y19075293D01*
X23697799Y19013191D01*
X23589358Y18966503D01*
X23478471Y18936639D01*
X23369655Y18925007D01*
X23267426Y18933017D01*
X23223600Y18943764D01*
X23131888Y18984469D01*
X23055464Y19044218D01*
X22996402Y19120361D01*
X22956778Y19210250D01*
X22938937Y19307217D01*
X22938112Y19370774D01*
X22946715Y19428046D01*
X22966762Y19482294D01*
X23000272Y19536783D01*
X23049263Y19594775D01*
X23115752Y19659534D01*
X23201757Y19734324D01*
X23204396Y19736535D01*
X23274497Y19795694D01*
X23327556Y19841905D01*
X23366334Y19878123D01*
X23393597Y19907302D01*
X23412107Y19932396D01*
X23424628Y19956361D01*
X23433811Y19981790D01*
X23442235Y20018014D01*
X23438490Y20046804D01*
X23424439Y20077040D01*
X23385281Y20126690D01*
X23332801Y20155031D01*
X23267690Y20161939D01*
X23190638Y20147290D01*
X23139130Y20128174D01*
X23073414Y20088833D01*
X23019367Y20034909D01*
X22981094Y19971975D01*
X22962699Y19905606D01*
X22961670Y19887221D01*
X22953551Y19874012D01*
X22926976Y19862725D01*
X22879195Y19852007D01*
X22829215Y19842701D01*
X22783379Y19834005D01*
X22756944Y19828854D01*
X22717098Y19820885D01*
X22722321Y19902168D01*
X22736339Y19986660D01*
X22768529Y20063555D01*
X22821444Y20137919D01*
X22863695Y20182931D01*
X22950086Y20253950D01*
X23048103Y20310566D01*
X23152371Y20350836D01*
X23257513Y20372818D01*
X23358155Y20374567D01*
X23384562Y20371205D01*
X23384562Y20371205D01*
G37*
X23384562Y20371205D02*
X23477984Y20344149D01*
X23559552Y20297314D01*
X23626988Y20234062D01*
X23678017Y20157756D01*
X23710361Y20071758D01*
X23721745Y19979430D01*
X23711077Y19888939D01*
X23697064Y19846018D01*
X23674525Y19803400D01*
X23641023Y19758211D01*
X23594122Y19707579D01*
X23531383Y19648630D01*
X23450369Y19578493D01*
X23441107Y19570700D01*
X23369999Y19510184D01*
X23316529Y19462119D01*
X23278255Y19423397D01*
X23252736Y19390913D01*
X23237531Y19361560D01*
X23230199Y19332230D01*
X23228300Y19299853D01*
X23231480Y19258376D01*
X23244477Y19226660D01*
X23271774Y19192689D01*
X23295343Y19168253D01*
X23315511Y19154090D01*
X23340336Y19147400D01*
X23377874Y19145383D01*
X23408299Y19145250D01*
X23505570Y19155961D01*
X23595028Y19188985D01*
X23679911Y19245660D01*
X23705474Y19267938D01*
X23756583Y19323052D01*
X23786670Y19377640D01*
X23799041Y19438475D01*
X23799800Y19461284D01*
X23799800Y19517784D01*
X23912497Y19544242D01*
X23963192Y19555920D01*
X24004273Y19564963D01*
X24029648Y19570051D01*
X24034450Y19570700D01*
X24038172Y19559010D01*
X24040019Y19527872D01*
X24039731Y19483189D01*
X24039098Y19465925D01*
X24030802Y19385897D01*
X24011544Y19317921D01*
X23978121Y19255270D01*
X23927329Y19191221D01*
X23889268Y19151400D01*
X23799274Y19075293D01*
X23697799Y19013191D01*
X23589358Y18966503D01*
X23478471Y18936639D01*
X23369655Y18925007D01*
X23267426Y18933017D01*
X23223600Y18943764D01*
X23131888Y18984469D01*
X23055464Y19044218D01*
X22996402Y19120361D01*
X22956778Y19210250D01*
X22938937Y19307217D01*
X22938112Y19370774D01*
X22946715Y19428046D01*
X22966762Y19482294D01*
X23000272Y19536783D01*
X23049263Y19594775D01*
X23115752Y19659534D01*
X23201757Y19734324D01*
X23204396Y19736535D01*
X23274497Y19795694D01*
X23327556Y19841905D01*
X23366334Y19878123D01*
X23393597Y19907302D01*
X23412107Y19932396D01*
X23424628Y19956361D01*
X23433811Y19981790D01*
X23442235Y20018014D01*
X23438490Y20046804D01*
X23424439Y20077040D01*
X23385281Y20126690D01*
X23332801Y20155031D01*
X23267690Y20161939D01*
X23190638Y20147290D01*
X23139130Y20128174D01*
X23073414Y20088833D01*
X23019367Y20034909D01*
X22981094Y19971975D01*
X22962699Y19905606D01*
X22961670Y19887221D01*
X22953551Y19874012D01*
X22926976Y19862725D01*
X22879195Y19852007D01*
X22829215Y19842701D01*
X22783379Y19834005D01*
X22756944Y19828854D01*
X22717098Y19820885D01*
X22722321Y19902168D01*
X22736339Y19986660D01*
X22768529Y20063555D01*
X22821444Y20137919D01*
X22863695Y20182931D01*
X22950086Y20253950D01*
X23048103Y20310566D01*
X23152371Y20350836D01*
X23257513Y20372818D01*
X23358155Y20374567D01*
X23384562Y20371205D01*
G36*
X24311540Y20868340D02*
G01*
X24335268Y20841363D01*
X24366332Y20801587D01*
X24400352Y20754548D01*
X24436617Y20702862D01*
X24469641Y20656209D01*
X24495526Y20620070D01*
X24509378Y20601221D01*
X24532202Y20571292D01*
X24726484Y20661056D01*
X24754558Y20620703D01*
X24782426Y20581463D01*
X24811550Y20541576D01*
X24812921Y20539735D01*
X24843209Y20499119D01*
X24650181Y20401995D01*
X24709440Y20319723D01*
X24737775Y20280517D01*
X24760108Y20249863D01*
X24772532Y20233115D01*
X24773647Y20231712D01*
X24786450Y20234302D01*
X24816245Y20246201D01*
X24857436Y20265098D01*
X24873159Y20272765D01*
X24967725Y20319558D01*
X25016413Y20253104D01*
X25043135Y20216201D01*
X25064279Y20186222D01*
X25074296Y20171185D01*
X25068863Y20156871D01*
X25039557Y20135444D01*
X24994096Y20110700D01*
X24952165Y20088748D01*
X24920778Y20070722D01*
X24905401Y20059810D01*
X24904700Y20058566D01*
X24911673Y20046251D01*
X24930875Y20017100D01*
X24959723Y19974915D01*
X24995639Y19923498D01*
X25013960Y19897599D01*
X25052796Y19842505D01*
X25086284Y19794230D01*
X25111678Y19756790D01*
X25126232Y19734204D01*
X25128495Y19730002D01*
X25120092Y19720041D01*
X25095120Y19703835D01*
X25060459Y19684902D01*
X25022988Y19666762D01*
X24989588Y19652933D01*
X24967138Y19646935D01*
X24966029Y19646899D01*
X24955973Y19656684D01*
X24934274Y19683528D01*
X24903834Y19723669D01*
X24867557Y19773345D01*
X24855805Y19789775D01*
X24817120Y19844040D01*
X24782483Y19892478D01*
X24755190Y19930492D01*
X24738535Y19953484D01*
X24736510Y19956223D01*
X24726615Y19967116D01*
X24714507Y19970655D01*
X24694793Y19965699D01*
X24662076Y19951105D01*
X24624484Y19932510D01*
X24580636Y19910349D01*
X24546428Y19892677D01*
X24527489Y19882415D01*
X24525548Y19881152D01*
X24530952Y19870000D01*
X24548842Y19842023D01*
X24576739Y19800915D01*
X24612163Y19750375D01*
X24630308Y19724968D01*
X24669454Y19669945D01*
X24703325Y19621347D01*
X24729091Y19583311D01*
X24743923Y19559972D01*
X24746198Y19555583D01*
X24738854Y19539564D01*
X24707126Y19517146D01*
X24670866Y19497895D01*
X24588906Y19457479D01*
X24467382Y19627658D01*
X24345858Y19797836D01*
X24251109Y19754658D01*
X24156361Y19711480D01*
X24128013Y19752215D01*
X24099915Y19791778D01*
X24070683Y19831814D01*
X24069382Y19833562D01*
X24039097Y19874173D01*
X24128998Y19919446D01*
X24171052Y19941411D01*
X24202582Y19959379D01*
X24218142Y19970198D01*
X24218900Y19971452D01*
X24212072Y19983669D01*
X24194525Y20010058D01*
X24170661Y20044387D01*
X24144884Y20080421D01*
X24121596Y20111926D01*
X24105201Y20132668D01*
X24104357Y20133632D01*
X24089490Y20133239D01*
X24058310Y20122855D01*
X24016834Y20104591D01*
X24005138Y20098828D01*
X23915211Y20053541D01*
X23855973Y20136555D01*
X23829056Y20175374D01*
X23809791Y20205288D01*
X23801384Y20221245D01*
X23801443Y20222546D01*
X23804201Y20223911D01*
X24282400Y20223911D01*
X24289169Y20210444D01*
X24306610Y20183234D01*
X24330421Y20148367D01*
X24356301Y20111928D01*
X24379948Y20080004D01*
X24397062Y20058679D01*
X24402988Y20053300D01*
X24416039Y20058205D01*
X24446449Y20071272D01*
X24488513Y20090027D01*
X24504682Y20097363D01*
X24601372Y20141426D01*
X24546661Y20220701D01*
X24519348Y20260250D01*
X24497479Y20291867D01*
X24485228Y20309521D01*
X24484472Y20310600D01*
X24470856Y20310137D01*
X24441179Y20300999D01*
X24402028Y20286010D01*
X24359989Y20267996D01*
X24321648Y20249783D01*
X24293592Y20234196D01*
X24282406Y20224061D01*
X24282400Y20223911D01*
X23804201Y20223911D01*
X23814466Y20228990D01*
X23844233Y20243105D01*
X23884434Y20261902D01*
X23886509Y20262867D01*
X23927385Y20282773D01*
X23958255Y20299509D01*
X23972630Y20309550D01*
X23972749Y20309727D01*
X23967825Y20322881D01*
X23950255Y20352408D01*
X23922592Y20394332D01*
X23887391Y20444677D01*
X23875309Y20461424D01*
X23837326Y20514181D01*
X23804893Y20560151D01*
X23780901Y20595166D01*
X23768239Y20615063D01*
X23767110Y20617379D01*
X23775630Y20627456D01*
X23800652Y20643846D01*
X23835278Y20662978D01*
X23872613Y20681284D01*
X23905760Y20695192D01*
X23927821Y20701133D01*
X23928970Y20701156D01*
X23938987Y20691299D01*
X23960657Y20664334D01*
X23991116Y20623998D01*
X24027498Y20574024D01*
X24040937Y20555180D01*
X24078986Y20502112D01*
X24112297Y20456716D01*
X24137916Y20422939D01*
X24152888Y20404726D01*
X24154982Y20402808D01*
X24170551Y20404916D01*
X24202830Y20416225D01*
X24245830Y20434534D01*
X24262408Y20442239D01*
X24359234Y20488222D01*
X24329646Y20527936D01*
X24284910Y20588745D01*
X24242212Y20648158D01*
X24204103Y20702479D01*
X24173137Y20748010D01*
X24151866Y20781054D01*
X24142841Y20797913D01*
X24142700Y20798756D01*
X24153209Y20809596D01*
X24179837Y20826395D01*
X24215233Y20845399D01*
X24252047Y20862852D01*
X24282928Y20875000D01*
X24298556Y20878373D01*
X24311540Y20868340D01*
X24311540Y20868340D01*
G37*
X24311540Y20868340D02*
X24335268Y20841363D01*
X24366332Y20801587D01*
X24400352Y20754548D01*
X24436617Y20702862D01*
X24469641Y20656209D01*
X24495526Y20620070D01*
X24509378Y20601221D01*
X24532202Y20571292D01*
X24726484Y20661056D01*
X24754558Y20620703D01*
X24782426Y20581463D01*
X24811550Y20541576D01*
X24812921Y20539735D01*
X24843209Y20499119D01*
X24650181Y20401995D01*
X24709440Y20319723D01*
X24737775Y20280517D01*
X24760108Y20249863D01*
X24772532Y20233115D01*
X24773647Y20231712D01*
X24786450Y20234302D01*
X24816245Y20246201D01*
X24857436Y20265098D01*
X24873159Y20272765D01*
X24967725Y20319558D01*
X25016413Y20253104D01*
X25043135Y20216201D01*
X25064279Y20186222D01*
X25074296Y20171185D01*
X25068863Y20156871D01*
X25039557Y20135444D01*
X24994096Y20110700D01*
X24952165Y20088748D01*
X24920778Y20070722D01*
X24905401Y20059810D01*
X24904700Y20058566D01*
X24911673Y20046251D01*
X24930875Y20017100D01*
X24959723Y19974915D01*
X24995639Y19923498D01*
X25013960Y19897599D01*
X25052796Y19842505D01*
X25086284Y19794230D01*
X25111678Y19756790D01*
X25126232Y19734204D01*
X25128495Y19730002D01*
X25120092Y19720041D01*
X25095120Y19703835D01*
X25060459Y19684902D01*
X25022988Y19666762D01*
X24989588Y19652933D01*
X24967138Y19646935D01*
X24966029Y19646899D01*
X24955973Y19656684D01*
X24934274Y19683528D01*
X24903834Y19723669D01*
X24867557Y19773345D01*
X24855805Y19789775D01*
X24817120Y19844040D01*
X24782483Y19892478D01*
X24755190Y19930492D01*
X24738535Y19953484D01*
X24736510Y19956223D01*
X24726615Y19967116D01*
X24714507Y19970655D01*
X24694793Y19965699D01*
X24662076Y19951105D01*
X24624484Y19932510D01*
X24580636Y19910349D01*
X24546428Y19892677D01*
X24527489Y19882415D01*
X24525548Y19881152D01*
X24530952Y19870000D01*
X24548842Y19842023D01*
X24576739Y19800915D01*
X24612163Y19750375D01*
X24630308Y19724968D01*
X24669454Y19669945D01*
X24703325Y19621347D01*
X24729091Y19583311D01*
X24743923Y19559972D01*
X24746198Y19555583D01*
X24738854Y19539564D01*
X24707126Y19517146D01*
X24670866Y19497895D01*
X24588906Y19457479D01*
X24467382Y19627658D01*
X24345858Y19797836D01*
X24251109Y19754658D01*
X24156361Y19711480D01*
X24128013Y19752215D01*
X24099915Y19791778D01*
X24070683Y19831814D01*
X24069382Y19833562D01*
X24039097Y19874173D01*
X24128998Y19919446D01*
X24171052Y19941411D01*
X24202582Y19959379D01*
X24218142Y19970198D01*
X24218900Y19971452D01*
X24212072Y19983669D01*
X24194525Y20010058D01*
X24170661Y20044387D01*
X24144884Y20080421D01*
X24121596Y20111926D01*
X24105201Y20132668D01*
X24104357Y20133632D01*
X24089490Y20133239D01*
X24058310Y20122855D01*
X24016834Y20104591D01*
X24005138Y20098828D01*
X23915211Y20053541D01*
X23855973Y20136555D01*
X23829056Y20175374D01*
X23809791Y20205288D01*
X23801384Y20221245D01*
X23801443Y20222546D01*
X23804201Y20223911D01*
X24282400Y20223911D01*
X24289169Y20210444D01*
X24306610Y20183234D01*
X24330421Y20148367D01*
X24356301Y20111928D01*
X24379948Y20080004D01*
X24397062Y20058679D01*
X24402988Y20053300D01*
X24416039Y20058205D01*
X24446449Y20071272D01*
X24488513Y20090027D01*
X24504682Y20097363D01*
X24601372Y20141426D01*
X24546661Y20220701D01*
X24519348Y20260250D01*
X24497479Y20291867D01*
X24485228Y20309521D01*
X24484472Y20310600D01*
X24470856Y20310137D01*
X24441179Y20300999D01*
X24402028Y20286010D01*
X24359989Y20267996D01*
X24321648Y20249783D01*
X24293592Y20234196D01*
X24282406Y20224061D01*
X24282400Y20223911D01*
X23804201Y20223911D01*
X23814466Y20228990D01*
X23844233Y20243105D01*
X23884434Y20261902D01*
X23886509Y20262867D01*
X23927385Y20282773D01*
X23958255Y20299509D01*
X23972630Y20309550D01*
X23972749Y20309727D01*
X23967825Y20322881D01*
X23950255Y20352408D01*
X23922592Y20394332D01*
X23887391Y20444677D01*
X23875309Y20461424D01*
X23837326Y20514181D01*
X23804893Y20560151D01*
X23780901Y20595166D01*
X23768239Y20615063D01*
X23767110Y20617379D01*
X23775630Y20627456D01*
X23800652Y20643846D01*
X23835278Y20662978D01*
X23872613Y20681284D01*
X23905760Y20695192D01*
X23927821Y20701133D01*
X23928970Y20701156D01*
X23938987Y20691299D01*
X23960657Y20664334D01*
X23991116Y20623998D01*
X24027498Y20574024D01*
X24040937Y20555180D01*
X24078986Y20502112D01*
X24112297Y20456716D01*
X24137916Y20422939D01*
X24152888Y20404726D01*
X24154982Y20402808D01*
X24170551Y20404916D01*
X24202830Y20416225D01*
X24245830Y20434534D01*
X24262408Y20442239D01*
X24359234Y20488222D01*
X24329646Y20527936D01*
X24284910Y20588745D01*
X24242212Y20648158D01*
X24204103Y20702479D01*
X24173137Y20748010D01*
X24151866Y20781054D01*
X24142841Y20797913D01*
X24142700Y20798756D01*
X24153209Y20809596D01*
X24179837Y20826395D01*
X24215233Y20845399D01*
X24252047Y20862852D01*
X24282928Y20875000D01*
X24298556Y20878373D01*
X24311540Y20868340D01*
D12*
X-20400280Y3525140D02*
X-16515280Y3525140D01*
X-20400280Y1255140D02*
X-20400280Y3525140D01*
X-16515280Y1255140D02*
X-20400280Y1255140D01*
X-10187680Y1288160D02*
X-14072680Y1288160D01*
X-14072680Y1288160D02*
X-14072680Y3558160D01*
X-14072680Y3558160D02*
X-10187680Y3558160D01*
X-7087680Y3558160D02*
X-3202680Y3558160D01*
X-7087680Y1288160D02*
X-7087680Y3558160D01*
X-3202680Y1288160D02*
X-7087680Y1288160D01*
X6657140Y1305940D02*
X2772140Y1305940D01*
X2772140Y1305940D02*
X2772140Y3575940D01*
X2772140Y3575940D02*
X6657140Y3575940D01*
X12162060Y3514980D02*
X16047060Y3514980D01*
X12162060Y1244980D02*
X12162060Y3514980D01*
X16047060Y1244980D02*
X12162060Y1244980D01*
X24627640Y1295780D02*
X20742640Y1295780D01*
X20742640Y1295780D02*
X20742640Y3565780D01*
X20742640Y3565780D02*
X24627640Y3565780D01*
X30613960Y1270380D02*
X26728960Y1270380D01*
X26728960Y1270380D02*
X26728960Y3540380D01*
X26728960Y3540380D02*
X30613960Y3540380D01*
D13*
X-14275860Y13978100D02*
G75*
G03X-14275860Y13978100I-127000J0D01*
G01*
X16025020Y13078040D02*
G75*
G03X16025020Y13078040I-127000J0D01*
G01*
D14*
X-4377156Y-6259580D02*
X-5043822Y-7259580D01*
X-5043822Y-6259580D02*
X-4377156Y-7259580D01*
X-5948584Y-7259580D02*
X-5377156Y-7259580D01*
X-5662870Y-7259580D02*
X-5662870Y-6259580D01*
X-5567632Y-6402438D01*
X-5472394Y-6497676D01*
X-5377156Y-6545295D01*
X-6726680Y-9444485D02*
X-6976680Y-10194485D01*
X-7226680Y-9444485D01*
X-7905251Y-10123057D02*
X-7869537Y-10158771D01*
X-7762394Y-10194485D01*
X-7690965Y-10194485D01*
X-7583822Y-10158771D01*
X-7512394Y-10087342D01*
X-7476680Y-10015914D01*
X-7440965Y-9873057D01*
X-7440965Y-9765914D01*
X-7476680Y-9623057D01*
X-7512394Y-9551628D01*
X-7583822Y-9480200D01*
X-7690965Y-9444485D01*
X-7762394Y-9444485D01*
X-7869537Y-9480200D01*
X-7905251Y-9515914D01*
X-8655251Y-10123057D02*
X-8619537Y-10158771D01*
X-8512394Y-10194485D01*
X-8440965Y-10194485D01*
X-8333822Y-10158771D01*
X-8262394Y-10087342D01*
X-8226679Y-10015914D01*
X-8190965Y-9873057D01*
X-8190965Y-9765914D01*
X-8226679Y-9623057D01*
X-8262394Y-9551628D01*
X-8333822Y-9480200D01*
X-8440965Y-9444485D01*
X-8512394Y-9444485D01*
X-8619537Y-9480200D01*
X-8655251Y-9515914D01*
X-4275965Y-10158771D02*
X-4383108Y-10194485D01*
X-4561680Y-10194485D01*
X-4633108Y-10158771D01*
X-4668822Y-10123057D01*
X-4704537Y-10051628D01*
X-4704537Y-9980200D01*
X-4668822Y-9908771D01*
X-4633108Y-9873057D01*
X-4561680Y-9837342D01*
X-4418822Y-9801628D01*
X-4347394Y-9765914D01*
X-4311680Y-9730200D01*
X-4275965Y-9658771D01*
X-4275965Y-9587342D01*
X-4311680Y-9515914D01*
X-4347394Y-9480200D01*
X-4418822Y-9444485D01*
X-4597394Y-9444485D01*
X-4704537Y-9480200D01*
X-5025965Y-10194485D02*
X-5025965Y-9444485D01*
X-5204537Y-9444485D01*
X-5311680Y-9480200D01*
X-5383108Y-9551628D01*
X-5418822Y-9623057D01*
X-5454537Y-9765914D01*
X-5454537Y-9873057D01*
X-5418822Y-10015914D01*
X-5383108Y-10087342D01*
X-5311680Y-10158771D01*
X-5204537Y-10194485D01*
X-5025965Y-10194485D01*
X-5740251Y-9980200D02*
X-6097394Y-9980200D01*
X-5668822Y-10194485D02*
X-5918822Y-9444485D01*
X-6168822Y-10194485D01*
X-142537Y-9480200D02*
X-71108Y-9444485D01*
X36034Y-9444485D01*
X143177Y-9480200D01*
X214605Y-9551628D01*
X250320Y-9623057D01*
X286034Y-9765914D01*
X286034Y-9873057D01*
X250320Y-10015914D01*
X214605Y-10087342D01*
X143177Y-10158771D01*
X36034Y-10194485D01*
X-35394Y-10194485D01*
X-142537Y-10158771D01*
X-178251Y-10123057D01*
X-178251Y-9873057D01*
X-35394Y-9873057D01*
X-499680Y-10194485D02*
X-499680Y-9444485D01*
X-785394Y-9444485D01*
X-856822Y-9480200D01*
X-892537Y-9515914D01*
X-928251Y-9587342D01*
X-928251Y-9694485D01*
X-892537Y-9765914D01*
X-856822Y-9801628D01*
X-785394Y-9837342D01*
X-499680Y-9837342D01*
X-1249680Y-10194485D02*
X-1249680Y-9444485D01*
X-1749679Y-9444485D02*
X-1892537Y-9444485D01*
X-1963965Y-9480200D01*
X-2035394Y-9551628D01*
X-2071108Y-9694485D01*
X-2071108Y-9944485D01*
X-2035394Y-10087342D01*
X-1963965Y-10158771D01*
X-1892537Y-10194485D01*
X-1749679Y-10194485D01*
X-1678251Y-10158771D01*
X-1606822Y-10087342D01*
X-1571108Y-9944485D01*
X-1571108Y-9694485D01*
X-1606822Y-9551628D01*
X-1678251Y-9480200D01*
X-1749679Y-9444485D01*
X-2785394Y-10194485D02*
X-2356822Y-10194485D01*
X-2571108Y-10194485D02*
X-2571108Y-9444485D01*
X-2499679Y-9551628D01*
X-2428251Y-9623057D01*
X-2356822Y-9658771D01*
X-7155251Y-15322200D02*
X-7083822Y-15286485D01*
X-6976679Y-15286485D01*
X-6869537Y-15322200D01*
X-6798108Y-15393628D01*
X-6762394Y-15465057D01*
X-6726679Y-15607914D01*
X-6726679Y-15715057D01*
X-6762394Y-15857914D01*
X-6798108Y-15929342D01*
X-6869537Y-16000771D01*
X-6976679Y-16036485D01*
X-7048108Y-16036485D01*
X-7155251Y-16000771D01*
X-7190965Y-15965057D01*
X-7190965Y-15715057D01*
X-7048108Y-15715057D01*
X-7512394Y-16036485D02*
X-7512394Y-15286485D01*
X-7940965Y-16036485D01*
X-7940965Y-15286485D01*
X-8298108Y-16036485D02*
X-8298108Y-15286485D01*
X-8476679Y-15286485D01*
X-8583822Y-15322200D01*
X-8655251Y-15393628D01*
X-8690965Y-15465057D01*
X-8726679Y-15607914D01*
X-8726679Y-15715057D01*
X-8690965Y-15857914D01*
X-8655251Y-15929342D01*
X-8583822Y-16000771D01*
X-8476679Y-16036485D01*
X-8298108Y-16036485D01*
X-4293822Y-16000771D02*
X-4400965Y-16036485D01*
X-4579537Y-16036485D01*
X-4650965Y-16000771D01*
X-4686680Y-15965057D01*
X-4722394Y-15893628D01*
X-4722394Y-15822200D01*
X-4686680Y-15750771D01*
X-4650965Y-15715057D01*
X-4579537Y-15679342D01*
X-4436680Y-15643628D01*
X-4365251Y-15607914D01*
X-4329537Y-15572200D01*
X-4293822Y-15500771D01*
X-4293822Y-15429342D01*
X-4329537Y-15357914D01*
X-4365251Y-15322200D01*
X-4436680Y-15286485D01*
X-4615251Y-15286485D01*
X-4722394Y-15322200D01*
X-5472394Y-15965057D02*
X-5436680Y-16000771D01*
X-5329537Y-16036485D01*
X-5258108Y-16036485D01*
X-5150965Y-16000771D01*
X-5079537Y-15929342D01*
X-5043822Y-15857914D01*
X-5008108Y-15715057D01*
X-5008108Y-15607914D01*
X-5043822Y-15465057D01*
X-5079537Y-15393628D01*
X-5150965Y-15322200D01*
X-5258108Y-15286485D01*
X-5329537Y-15286485D01*
X-5436680Y-15322200D01*
X-5472394Y-15357914D01*
X-6150965Y-16036485D02*
X-5793822Y-16036485D01*
X-5793822Y-15286485D01*
X-142537Y-15322200D02*
X-71108Y-15286485D01*
X36034Y-15286485D01*
X143177Y-15322200D01*
X214605Y-15393628D01*
X250320Y-15465057D01*
X286034Y-15607914D01*
X286034Y-15715057D01*
X250320Y-15857914D01*
X214605Y-15929342D01*
X143177Y-16000771D01*
X36034Y-16036485D01*
X-35394Y-16036485D01*
X-142537Y-16000771D01*
X-178251Y-15965057D01*
X-178251Y-15715057D01*
X-35394Y-15715057D01*
X-499680Y-16036485D02*
X-499680Y-15286485D01*
X-785394Y-15286485D01*
X-856822Y-15322200D01*
X-892537Y-15357914D01*
X-928251Y-15429342D01*
X-928251Y-15536485D01*
X-892537Y-15607914D01*
X-856822Y-15643628D01*
X-785394Y-15679342D01*
X-499680Y-15679342D01*
X-1249680Y-16036485D02*
X-1249680Y-15286485D01*
X-1749679Y-15286485D02*
X-1892537Y-15286485D01*
X-1963965Y-15322200D01*
X-2035394Y-15393628D01*
X-2071108Y-15536485D01*
X-2071108Y-15786485D01*
X-2035394Y-15929342D01*
X-1963965Y-16000771D01*
X-1892537Y-16036485D01*
X-1749679Y-16036485D01*
X-1678251Y-16000771D01*
X-1606822Y-15929342D01*
X-1571108Y-15786485D01*
X-1571108Y-15536485D01*
X-1606822Y-15393628D01*
X-1678251Y-15322200D01*
X-1749679Y-15286485D01*
X-2356822Y-15357914D02*
X-2392537Y-15322200D01*
X-2463965Y-15286485D01*
X-2642537Y-15286485D01*
X-2713965Y-15322200D01*
X-2749679Y-15357914D01*
X-2785394Y-15429342D01*
X-2785394Y-15500771D01*
X-2749679Y-15607914D01*
X-2321108Y-16036485D01*
X-2785394Y-16036485D01*
X-17377184Y117759D02*
X-17377184Y1117759D01*
X-17615280Y1117759D01*
X-17758137Y1070140D01*
X-17853375Y974901D01*
X-17900994Y879663D01*
X-17948613Y689187D01*
X-17948613Y546330D01*
X-17900994Y355854D01*
X-17853375Y260616D01*
X-17758137Y165378D01*
X-17615280Y117759D01*
X-17377184Y117759D01*
X-18900994Y117759D02*
X-18329565Y117759D01*
X-18615280Y117759D02*
X-18615280Y1117759D01*
X-18520041Y974901D01*
X-18424803Y879663D01*
X-18329565Y832044D01*
X-11049584Y150779D02*
X-11049584Y1150779D01*
X-11287680Y1150779D01*
X-11430537Y1103160D01*
X-11525775Y1007921D01*
X-11573394Y912683D01*
X-11621013Y722207D01*
X-11621013Y579350D01*
X-11573394Y388874D01*
X-11525775Y293636D01*
X-11430537Y198398D01*
X-11287680Y150779D01*
X-11049584Y150779D01*
X-12001965Y1055540D02*
X-12049584Y1103160D01*
X-12144822Y1150779D01*
X-12382918Y1150779D01*
X-12478156Y1103160D01*
X-12525775Y1055540D01*
X-12573394Y960302D01*
X-12573394Y865064D01*
X-12525775Y722207D01*
X-11954346Y150779D01*
X-12573394Y150779D01*
X-4064584Y150779D02*
X-4064584Y1150779D01*
X-4302680Y1150779D01*
X-4445537Y1103160D01*
X-4540775Y1007921D01*
X-4588394Y912683D01*
X-4636013Y722207D01*
X-4636013Y579350D01*
X-4588394Y388874D01*
X-4540775Y293636D01*
X-4445537Y198398D01*
X-4302680Y150779D01*
X-4064584Y150779D01*
X-4969346Y1150779D02*
X-5588394Y1150779D01*
X-5255060Y769826D01*
X-5397918Y769826D01*
X-5493156Y722207D01*
X-5540775Y674588D01*
X-5588394Y579350D01*
X-5588394Y341255D01*
X-5540775Y246017D01*
X-5493156Y198398D01*
X-5397918Y150779D01*
X-5112203Y150779D01*
X-5016965Y198398D01*
X-4969346Y246017D01*
X5795235Y168559D02*
X5795235Y1168559D01*
X5557140Y1168559D01*
X5414282Y1120940D01*
X5319044Y1025701D01*
X5271425Y930463D01*
X5223806Y739987D01*
X5223806Y597130D01*
X5271425Y406654D01*
X5319044Y311416D01*
X5414282Y216178D01*
X5557140Y168559D01*
X5795235Y168559D01*
X4366663Y835225D02*
X4366663Y168559D01*
X4604759Y1216178D02*
X4842854Y501892D01*
X4223806Y501892D01*
X15185155Y107599D02*
X15185155Y1107599D01*
X14947060Y1107599D01*
X14804202Y1059980D01*
X14708964Y964741D01*
X14661345Y869503D01*
X14613726Y679027D01*
X14613726Y536170D01*
X14661345Y345694D01*
X14708964Y250456D01*
X14804202Y155218D01*
X14947060Y107599D01*
X15185155Y107599D01*
X13708964Y1107599D02*
X14185155Y1107599D01*
X14232774Y631408D01*
X14185155Y679027D01*
X14089917Y726646D01*
X13851821Y726646D01*
X13756583Y679027D01*
X13708964Y631408D01*
X13661345Y536170D01*
X13661345Y298075D01*
X13708964Y202837D01*
X13756583Y155218D01*
X13851821Y107599D01*
X14089917Y107599D01*
X14185155Y155218D01*
X14232774Y202837D01*
X23765735Y158399D02*
X23765735Y1158399D01*
X23527640Y1158399D01*
X23384782Y1110780D01*
X23289544Y1015541D01*
X23241925Y920303D01*
X23194306Y729827D01*
X23194306Y586970D01*
X23241925Y396494D01*
X23289544Y301256D01*
X23384782Y206018D01*
X23527640Y158399D01*
X23765735Y158399D01*
X22337163Y1158399D02*
X22527640Y1158399D01*
X22622878Y1110780D01*
X22670497Y1063160D01*
X22765735Y920303D01*
X22813354Y729827D01*
X22813354Y348875D01*
X22765735Y253637D01*
X22718116Y206018D01*
X22622878Y158399D01*
X22432401Y158399D01*
X22337163Y206018D01*
X22289544Y253637D01*
X22241925Y348875D01*
X22241925Y586970D01*
X22289544Y682208D01*
X22337163Y729827D01*
X22432401Y777446D01*
X22622878Y777446D01*
X22718116Y729827D01*
X22765735Y682208D01*
X22813354Y586970D01*
X29752055Y132999D02*
X29752055Y1132999D01*
X29513960Y1132999D01*
X29371102Y1085380D01*
X29275864Y990141D01*
X29228245Y894903D01*
X29180626Y704427D01*
X29180626Y561570D01*
X29228245Y371094D01*
X29275864Y275856D01*
X29371102Y180618D01*
X29513960Y132999D01*
X29752055Y132999D01*
X28847293Y1132999D02*
X28180626Y1132999D01*
X28609198Y132999D01*
D15*
X-14843032Y13545797D02*
X-15068419Y13703568D01*
X-14843032Y13816261D02*
X-15316345Y13816261D01*
X-15316345Y13635952D01*
X-15293806Y13590874D01*
X-15271267Y13568336D01*
X-15226190Y13545797D01*
X-15158574Y13545797D01*
X-15113496Y13568336D01*
X-15090958Y13590874D01*
X-15068419Y13635952D01*
X-15068419Y13816261D01*
X-14843032Y13342948D02*
X-15316345Y13342948D01*
X-14843032Y13072484D01*
X-15316345Y13072484D01*
X-14843032Y12599171D02*
X-14843032Y12869635D01*
X-14843032Y12734403D02*
X-15316345Y12734403D01*
X-15248729Y12779481D01*
X-15203651Y12824558D01*
X-15181112Y12869635D01*
X-10197881Y15459542D02*
X-10175328Y15482095D01*
X-10152775Y15549754D01*
X-10152775Y15594861D01*
X-10175328Y15662520D01*
X-10220434Y15707626D01*
X-10265541Y15730179D01*
X-10355753Y15752732D01*
X-10423412Y15752732D01*
X-10513625Y15730179D01*
X-10558731Y15707626D01*
X-10603837Y15662520D01*
X-10626390Y15594861D01*
X-10626390Y15549754D01*
X-10603837Y15482095D01*
X-10581284Y15459542D01*
X-10288094Y15279117D02*
X-10288094Y15053586D01*
X-10152775Y15324223D02*
X-10626390Y15166352D01*
X-10152775Y15008480D01*
X-10378306Y14760396D02*
X-10152775Y14760396D01*
X-10626390Y14918268D02*
X-10378306Y14760396D01*
X-10626390Y14602524D01*
X-10152775Y14196569D02*
X-10152775Y14467206D01*
X-10152775Y14331887D02*
X-10626390Y14331887D01*
X-10558731Y14376993D01*
X-10513625Y14422100D01*
X-10491072Y14467206D01*
X-10626390Y13790613D02*
X-10626390Y13880825D01*
X-10603837Y13925932D01*
X-10581284Y13948485D01*
X-10513625Y13993591D01*
X-10423412Y14016144D01*
X-10242987Y14016144D01*
X-10197881Y13993591D01*
X-10175328Y13971038D01*
X-10152775Y13925932D01*
X-10152775Y13835719D01*
X-10175328Y13790613D01*
X-10197881Y13768060D01*
X-10242987Y13745507D01*
X-10355753Y13745507D01*
X-10400859Y13768060D01*
X-10423412Y13790613D01*
X-10445965Y13835719D01*
X-10445965Y13925932D01*
X-10423412Y13971038D01*
X-10400859Y13993591D01*
X-10355753Y14016144D01*
X-10333200Y13542529D02*
X-10333200Y13181679D01*
X-10626390Y13001255D02*
X-10626390Y12708064D01*
X-10445965Y12865936D01*
X-10445965Y12798277D01*
X-10423412Y12753171D01*
X-10400859Y12730617D01*
X-10355753Y12708064D01*
X-10242987Y12708064D01*
X-10197881Y12730617D01*
X-10175328Y12753171D01*
X-10152775Y12798277D01*
X-10152775Y12933595D01*
X-10175328Y12978702D01*
X-10197881Y13001255D01*
X-10626390Y12550193D02*
X-10626390Y12257002D01*
X-10445965Y12414874D01*
X-10445965Y12347215D01*
X-10423412Y12302109D01*
X-10400859Y12279556D01*
X-10355753Y12257002D01*
X-10242987Y12257002D01*
X-10197881Y12279556D01*
X-10175328Y12302109D01*
X-10152775Y12347215D01*
X-10152775Y12482533D01*
X-10175328Y12527640D01*
X-10197881Y12550193D01*
X-10152775Y11805941D02*
X-10152775Y12076578D01*
X-10152775Y11941259D02*
X-10626390Y11941259D01*
X-10558731Y11986365D01*
X-10513625Y12031472D01*
X-10491072Y12076578D01*
X-10626390Y11467644D02*
X-10288094Y11467644D01*
X-10220434Y11490197D01*
X-10175328Y11535303D01*
X-10152775Y11602963D01*
X-10152775Y11648069D01*
X-10468518Y11039135D02*
X-10152775Y11039135D01*
X-10648943Y11151901D02*
X-10310647Y11264666D01*
X-10310647Y10971476D01*
X-10152775Y10565520D02*
X-10152775Y10791051D01*
X-10626390Y10791051D01*
X-10400859Y10249777D02*
X-10400859Y10407649D01*
X-10152775Y10407649D02*
X-10626390Y10407649D01*
X-10626390Y10182118D01*
X15457847Y12645737D02*
X15232460Y12803508D01*
X15457847Y12916201D02*
X14984534Y12916201D01*
X14984534Y12735892D01*
X15007073Y12690814D01*
X15029612Y12668276D01*
X15074689Y12645737D01*
X15142305Y12645737D01*
X15187383Y12668276D01*
X15209921Y12690814D01*
X15232460Y12735892D01*
X15232460Y12916201D01*
X15457847Y12442888D02*
X14984534Y12442888D01*
X15457847Y12172424D01*
X14984534Y12172424D01*
X15029612Y11969575D02*
X15007073Y11947037D01*
X14984534Y11901959D01*
X14984534Y11789266D01*
X15007073Y11744188D01*
X15029612Y11721650D01*
X15074689Y11699111D01*
X15119767Y11699111D01*
X15187383Y11721650D01*
X15457847Y11992114D01*
X15457847Y11699111D01*
X20102998Y14559482D02*
X20125551Y14582035D01*
X20148104Y14649694D01*
X20148104Y14694801D01*
X20125551Y14762460D01*
X20080445Y14807566D01*
X20035338Y14830119D01*
X19945126Y14852672D01*
X19877467Y14852672D01*
X19787254Y14830119D01*
X19742148Y14807566D01*
X19697042Y14762460D01*
X19674489Y14694801D01*
X19674489Y14649694D01*
X19697042Y14582035D01*
X19719595Y14559482D01*
X20012785Y14379057D02*
X20012785Y14153526D01*
X20148104Y14424163D02*
X19674489Y14266292D01*
X20148104Y14108420D01*
X19922573Y13860336D02*
X20148104Y13860336D01*
X19674489Y14018208D02*
X19922573Y13860336D01*
X19674489Y13702464D01*
X20148104Y13296509D02*
X20148104Y13567146D01*
X20148104Y13431827D02*
X19674489Y13431827D01*
X19742148Y13476933D01*
X19787254Y13522040D01*
X19809807Y13567146D01*
X19674489Y12890553D02*
X19674489Y12980765D01*
X19697042Y13025872D01*
X19719595Y13048425D01*
X19787254Y13093531D01*
X19877467Y13116084D01*
X20057892Y13116084D01*
X20102998Y13093531D01*
X20125551Y13070978D01*
X20148104Y13025872D01*
X20148104Y12935659D01*
X20125551Y12890553D01*
X20102998Y12868000D01*
X20057892Y12845447D01*
X19945126Y12845447D01*
X19900020Y12868000D01*
X19877467Y12890553D01*
X19854914Y12935659D01*
X19854914Y13025872D01*
X19877467Y13070978D01*
X19900020Y13093531D01*
X19945126Y13116084D01*
X19967679Y12642469D02*
X19967679Y12281619D01*
X19674489Y12101195D02*
X19674489Y11808004D01*
X19854914Y11965876D01*
X19854914Y11898217D01*
X19877467Y11853111D01*
X19900020Y11830557D01*
X19945126Y11808004D01*
X20057892Y11808004D01*
X20102998Y11830557D01*
X20125551Y11853111D01*
X20148104Y11898217D01*
X20148104Y12033535D01*
X20125551Y12078642D01*
X20102998Y12101195D01*
X19674489Y11650133D02*
X19674489Y11356942D01*
X19854914Y11514814D01*
X19854914Y11447155D01*
X19877467Y11402049D01*
X19900020Y11379496D01*
X19945126Y11356942D01*
X20057892Y11356942D01*
X20102998Y11379496D01*
X20125551Y11402049D01*
X20148104Y11447155D01*
X20148104Y11582473D01*
X20125551Y11627580D01*
X20102998Y11650133D01*
X20148104Y10905881D02*
X20148104Y11176518D01*
X20148104Y11041199D02*
X19674489Y11041199D01*
X19742148Y11086305D01*
X19787254Y11131412D01*
X19809807Y11176518D01*
X19674489Y10567584D02*
X20012785Y10567584D01*
X20080445Y10590137D01*
X20125551Y10635243D01*
X20148104Y10702903D01*
X20148104Y10748009D01*
X19832361Y10139075D02*
X20148104Y10139075D01*
X19651936Y10251841D02*
X19990232Y10364606D01*
X19990232Y10071416D01*
X20148104Y9665460D02*
X20148104Y9890991D01*
X19674489Y9890991D01*
X19900020Y9349717D02*
X19900020Y9507589D01*
X20148104Y9507589D02*
X19674489Y9507589D01*
X19674489Y9282058D01*
M02*
